%TF.GenerationSoftware,KiCad,Pcbnew,(6.0.0)*%
%TF.CreationDate,2022-12-01T22:20:14+01:00*%
%TF.ProjectId,current_measurement,63757272-656e-4745-9f6d-656173757265,1.0*%
%TF.SameCoordinates,Original*%
%TF.FileFunction,Legend,Bot*%
%TF.FilePolarity,Positive*%
%FSLAX46Y46*%
G04 Gerber Fmt 4.6, Leading zero omitted, Abs format (unit mm)*
G04 Created by KiCad (PCBNEW (6.0.0)) date 2022-12-01 22:20:14*
%MOMM*%
%LPD*%
G01*
G04 APERTURE LIST*
%ADD10C,0.300000*%
%ADD11C,0.150000*%
%ADD12C,0.120000*%
G04 APERTURE END LIST*
D10*
X107525428Y-73850285D02*
X109025428Y-73850285D01*
X107525428Y-73136000D02*
X109025428Y-73136000D01*
X107525428Y-72278857D01*
X109025428Y-72278857D01*
X108096857Y-71564571D02*
X108096857Y-70421714D01*
X99397428Y-73850285D02*
X100897428Y-73850285D01*
X99397428Y-73136000D02*
X100897428Y-73136000D01*
X99397428Y-72278857D01*
X100897428Y-72278857D01*
X99968857Y-71564571D02*
X99968857Y-70421714D01*
X99397428Y-70993142D02*
X100540285Y-70993142D01*
D11*
%TO.C,R2*%
X109164380Y-62317333D02*
X108688190Y-61984000D01*
X109164380Y-61745904D02*
X108164380Y-61745904D01*
X108164380Y-62126857D01*
X108212000Y-62222095D01*
X108259619Y-62269714D01*
X108354857Y-62317333D01*
X108497714Y-62317333D01*
X108592952Y-62269714D01*
X108640571Y-62222095D01*
X108688190Y-62126857D01*
X108688190Y-61745904D01*
X108259619Y-62698285D02*
X108212000Y-62745904D01*
X108164380Y-62841142D01*
X108164380Y-63079238D01*
X108212000Y-63174476D01*
X108259619Y-63222095D01*
X108354857Y-63269714D01*
X108450095Y-63269714D01*
X108592952Y-63222095D01*
X109164380Y-62650666D01*
X109164380Y-63269714D01*
%TO.C,C1*%
X93638666Y-59793142D02*
X93686285Y-59840761D01*
X93829142Y-59888380D01*
X93924380Y-59888380D01*
X94067238Y-59840761D01*
X94162476Y-59745523D01*
X94210095Y-59650285D01*
X94257714Y-59459809D01*
X94257714Y-59316952D01*
X94210095Y-59126476D01*
X94162476Y-59031238D01*
X94067238Y-58936000D01*
X93924380Y-58888380D01*
X93829142Y-58888380D01*
X93686285Y-58936000D01*
X93638666Y-58983619D01*
X92686285Y-59888380D02*
X93257714Y-59888380D01*
X92972000Y-59888380D02*
X92972000Y-58888380D01*
X93067238Y-59031238D01*
X93162476Y-59126476D01*
X93257714Y-59174095D01*
%TO.C,U2*%
X109336380Y-67818095D02*
X110145904Y-67818095D01*
X110241142Y-67865714D01*
X110288761Y-67913333D01*
X110336380Y-68008571D01*
X110336380Y-68199047D01*
X110288761Y-68294285D01*
X110241142Y-68341904D01*
X110145904Y-68389523D01*
X109336380Y-68389523D01*
X109431619Y-68818095D02*
X109384000Y-68865714D01*
X109336380Y-68960952D01*
X109336380Y-69199047D01*
X109384000Y-69294285D01*
X109431619Y-69341904D01*
X109526857Y-69389523D01*
X109622095Y-69389523D01*
X109764952Y-69341904D01*
X110336380Y-68770476D01*
X110336380Y-69389523D01*
%TO.C,R1*%
X108878666Y-67000380D02*
X109212000Y-66524190D01*
X109450095Y-67000380D02*
X109450095Y-66000380D01*
X109069142Y-66000380D01*
X108973904Y-66048000D01*
X108926285Y-66095619D01*
X108878666Y-66190857D01*
X108878666Y-66333714D01*
X108926285Y-66428952D01*
X108973904Y-66476571D01*
X109069142Y-66524190D01*
X109450095Y-66524190D01*
X107926285Y-67000380D02*
X108497714Y-67000380D01*
X108212000Y-67000380D02*
X108212000Y-66000380D01*
X108307238Y-66143238D01*
X108402476Y-66238476D01*
X108497714Y-66286095D01*
%TO.C,C2*%
X105830666Y-58777142D02*
X105878285Y-58824761D01*
X106021142Y-58872380D01*
X106116380Y-58872380D01*
X106259238Y-58824761D01*
X106354476Y-58729523D01*
X106402095Y-58634285D01*
X106449714Y-58443809D01*
X106449714Y-58300952D01*
X106402095Y-58110476D01*
X106354476Y-58015238D01*
X106259238Y-57920000D01*
X106116380Y-57872380D01*
X106021142Y-57872380D01*
X105878285Y-57920000D01*
X105830666Y-57967619D01*
X105449714Y-57967619D02*
X105402095Y-57920000D01*
X105306857Y-57872380D01*
X105068761Y-57872380D01*
X104973523Y-57920000D01*
X104925904Y-57967619D01*
X104878285Y-58062857D01*
X104878285Y-58158095D01*
X104925904Y-58300952D01*
X105497333Y-58872380D01*
X104878285Y-58872380D01*
%TO.C,R4*%
X104814666Y-70556380D02*
X105148000Y-70080190D01*
X105386095Y-70556380D02*
X105386095Y-69556380D01*
X105005142Y-69556380D01*
X104909904Y-69604000D01*
X104862285Y-69651619D01*
X104814666Y-69746857D01*
X104814666Y-69889714D01*
X104862285Y-69984952D01*
X104909904Y-70032571D01*
X105005142Y-70080190D01*
X105386095Y-70080190D01*
X103957523Y-69889714D02*
X103957523Y-70556380D01*
X104195619Y-69508761D02*
X104433714Y-70223047D01*
X103814666Y-70223047D01*
%TO.C,R3*%
X111196380Y-61301333D02*
X110720190Y-60968000D01*
X111196380Y-60729904D02*
X110196380Y-60729904D01*
X110196380Y-61110857D01*
X110244000Y-61206095D01*
X110291619Y-61253714D01*
X110386857Y-61301333D01*
X110529714Y-61301333D01*
X110624952Y-61253714D01*
X110672571Y-61206095D01*
X110720190Y-61110857D01*
X110720190Y-60729904D01*
X110196380Y-61634666D02*
X110196380Y-62253714D01*
X110577333Y-61920380D01*
X110577333Y-62063238D01*
X110624952Y-62158476D01*
X110672571Y-62206095D01*
X110767809Y-62253714D01*
X111005904Y-62253714D01*
X111101142Y-62206095D01*
X111148761Y-62158476D01*
X111196380Y-62063238D01*
X111196380Y-61777523D01*
X111148761Y-61682285D01*
X111101142Y-61634666D01*
D12*
%TO.C,R2*%
X108332000Y-64683621D02*
X108332000Y-64348379D01*
X109092000Y-64683621D02*
X109092000Y-64348379D01*
%TO.C,J2*%
X106742472Y-71521187D02*
X106742472Y-74181187D01*
X101542472Y-72851187D02*
X101542472Y-74181187D01*
X104142472Y-71521187D02*
X106742472Y-71521187D01*
X101542472Y-74181187D02*
X102872472Y-74181187D01*
X104142472Y-71521187D02*
X104142472Y-74181187D01*
X104142472Y-74181187D02*
X106742472Y-74181187D01*
%TO.C,C1*%
X99288000Y-60272437D02*
X98223563Y-59208000D01*
X94768000Y-63728000D02*
X94768000Y-62528000D01*
X98223563Y-63728000D02*
X94768000Y-63728000D01*
X98223563Y-59208000D02*
X94768000Y-59208000D01*
X99288000Y-62663563D02*
X98223563Y-63728000D01*
X99288000Y-62663563D02*
X99288000Y-62528000D01*
X100028000Y-59908000D02*
X99528000Y-59908000D01*
X99778000Y-59658000D02*
X99778000Y-60158000D01*
X99288000Y-60272437D02*
X99288000Y-60408000D01*
X94768000Y-59208000D02*
X94768000Y-60408000D01*
%TO.C,U2*%
X115844000Y-66548000D02*
X115844000Y-64598000D01*
X110724000Y-66548000D02*
X110724000Y-68498000D01*
X110724000Y-66548000D02*
X110724000Y-63098000D01*
X115844000Y-66548000D02*
X115844000Y-68498000D01*
%TO.C,R1*%
X106512379Y-66168000D02*
X106847621Y-66168000D01*
X106512379Y-66928000D02*
X106847621Y-66928000D01*
%TO.C,C2*%
X101390000Y-63278000D02*
X101390000Y-62778000D01*
X101880000Y-60272437D02*
X101880000Y-60408000D01*
X102944437Y-63728000D02*
X106400000Y-63728000D01*
X102944437Y-59208000D02*
X106400000Y-59208000D01*
X106400000Y-63728000D02*
X106400000Y-62528000D01*
X101880000Y-62663563D02*
X102944437Y-63728000D01*
X101140000Y-63028000D02*
X101640000Y-63028000D01*
X101880000Y-62663563D02*
X101880000Y-62528000D01*
X101880000Y-60272437D02*
X102944437Y-59208000D01*
X106400000Y-59208000D02*
X106400000Y-60408000D01*
%TO.C,R4*%
X106317064Y-70798000D02*
X101962936Y-70798000D01*
X106317064Y-67378000D02*
X101962936Y-67378000D01*
%TO.C,R3*%
X110108000Y-63667621D02*
X110108000Y-63332379D01*
X109348000Y-63667621D02*
X109348000Y-63332379D01*
%TD*%
M02*
