%TF.GenerationSoftware,KiCad,Pcbnew,(6.0.0)*%
%TF.CreationDate,2022-12-01T23:11:15+01:00*%
%TF.ProjectId,current_measurement,63757272-656e-4745-9f6d-656173757265,1.1*%
%TF.SameCoordinates,Original*%
%TF.FileFunction,Copper,L1,Top*%
%TF.FilePolarity,Positive*%
%FSLAX46Y46*%
G04 Gerber Fmt 4.6, Leading zero omitted, Abs format (unit mm)*
G04 Created by KiCad (PCBNEW (6.0.0)) date 2022-12-01 23:11:15*
%MOMM*%
%LPD*%
G01*
G04 APERTURE LIST*
G04 Aperture macros list*
%AMRoundRect*
0 Rectangle with rounded corners*
0 $1 Rounding radius*
0 $2 $3 $4 $5 $6 $7 $8 $9 X,Y pos of 4 corners*
0 Add a 4 corners polygon primitive as box body*
4,1,4,$2,$3,$4,$5,$6,$7,$8,$9,$2,$3,0*
0 Add four circle primitives for the rounded corners*
1,1,$1+$1,$2,$3*
1,1,$1+$1,$4,$5*
1,1,$1+$1,$6,$7*
1,1,$1+$1,$8,$9*
0 Add four rect primitives between the rounded corners*
20,1,$1+$1,$2,$3,$4,$5,0*
20,1,$1+$1,$4,$5,$6,$7,0*
20,1,$1+$1,$6,$7,$8,$9,0*
20,1,$1+$1,$8,$9,$2,$3,0*%
G04 Aperture macros list end*
%TA.AperFunction,ComponentPad*%
%ADD10R,1.700000X1.700000*%
%TD*%
%TA.AperFunction,ComponentPad*%
%ADD11O,1.700000X1.700000*%
%TD*%
%TA.AperFunction,SMDPad,CuDef*%
%ADD12RoundRect,0.250000X0.550000X-1.050000X0.550000X1.050000X-0.550000X1.050000X-0.550000X-1.050000X0*%
%TD*%
%TA.AperFunction,ComponentPad*%
%ADD13C,1.440000*%
%TD*%
%TA.AperFunction,SMDPad,CuDef*%
%ADD14RoundRect,0.250000X1.050000X0.550000X-1.050000X0.550000X-1.050000X-0.550000X1.050000X-0.550000X0*%
%TD*%
%TA.AperFunction,SMDPad,CuDef*%
%ADD15R,1.400000X0.400000*%
%TD*%
%TA.AperFunction,SMDPad,CuDef*%
%ADD16R,1.900000X1.800000*%
%TD*%
%TA.AperFunction,SMDPad,CuDef*%
%ADD17R,1.900000X2.300000*%
%TD*%
%TA.AperFunction,ViaPad*%
%ADD18C,0.800000*%
%TD*%
%TA.AperFunction,Conductor*%
%ADD19C,0.250000*%
%TD*%
G04 APERTURE END LIST*
D10*
%TO.P,J1,1,Pin_1*%
%TO.N,+5V*%
X91699000Y-57404000D03*
D11*
%TO.P,J1,2,Pin_2*%
%TO.N,GND*%
X89159000Y-57404000D03*
%TD*%
D12*
%TO.P,C1,1*%
%TO.N,Net-(C1-Pad1)*%
X97028000Y-63268000D03*
%TO.P,C1,2*%
%TO.N,Net-(C1-Pad2)*%
X97028000Y-59668000D03*
%TD*%
D10*
%TO.P,J3,1,Pin_1*%
%TO.N,GND*%
X111501000Y-72644000D03*
D11*
%TO.P,J3,2,Pin_2*%
%TO.N,Net-(J3-Pad2)*%
X114041000Y-72644000D03*
%TD*%
D13*
%TO.P,RV1,1,1*%
%TO.N,-10V*%
X113284000Y-59436000D03*
%TO.P,RV1,2,2*%
%TO.N,Net-(R3-Pad2)*%
X110744000Y-59436000D03*
%TO.P,RV1,3,3*%
%TO.N,+10V*%
X108204000Y-59436000D03*
%TD*%
D14*
%TO.P,C3,1*%
%TO.N,+10V*%
X99104000Y-68580000D03*
%TO.P,C3,2*%
%TO.N,GND*%
X95504000Y-68580000D03*
%TD*%
%TO.P,C4,1*%
%TO.N,GND*%
X106448000Y-68580000D03*
%TO.P,C4,2*%
%TO.N,-10V*%
X102848000Y-68580000D03*
%TD*%
D12*
%TO.P,C2,1*%
%TO.N,Net-(C2-Pad1)*%
X102108000Y-63268000D03*
%TO.P,C2,2*%
%TO.N,Net-(C2-Pad2)*%
X102108000Y-59668000D03*
%TD*%
D15*
%TO.P,J4,1,VBUS*%
%TO.N,+5V*%
X92366000Y-63581000D03*
%TO.P,J4,2,D-*%
%TO.N,unconnected-(J4-Pad2)*%
X92366000Y-64231000D03*
%TO.P,J4,3,D+*%
%TO.N,unconnected-(J4-Pad3)*%
X92366000Y-64881000D03*
%TO.P,J4,4,ID*%
%TO.N,unconnected-(J4-Pad4)*%
X92366000Y-65531000D03*
%TO.P,J4,5,GND*%
%TO.N,GND*%
X92366000Y-66181000D03*
D16*
%TO.P,J4,6,Shield*%
X89516000Y-63731000D03*
D17*
X89516000Y-68631000D03*
D16*
X89516000Y-66031000D03*
D17*
X89516000Y-61131000D03*
%TD*%
D10*
%TO.P,J2,1,Pin_1*%
%TO.N,Net-(J2-Pad1)*%
X102872472Y-72851187D03*
D11*
%TO.P,J2,2,Pin_2*%
%TO.N,Net-(J2-Pad2)*%
X105412472Y-72851187D03*
%TD*%
D18*
%TO.N,Net-(C1-Pad1)*%
X95250000Y-60960000D03*
%TO.N,Net-(C1-Pad2)*%
X99060000Y-59690000D03*
%TO.N,Net-(C2-Pad1)*%
X104140000Y-62230000D03*
%TO.N,Net-(C2-Pad2)*%
X100330000Y-62230000D03*
%TO.N,+5V*%
X93980000Y-62992000D03*
%TO.N,GND*%
X107188000Y-65532000D03*
X95250000Y-64770000D03*
%TO.N,+10V*%
X99060000Y-67310000D03*
%TO.N,-10V*%
X102870000Y-66040000D03*
%TD*%
D19*
%TO.N,Net-(C1-Pad1)*%
X97028000Y-63268000D02*
X96288000Y-63268000D01*
X95250000Y-62230000D02*
X95250000Y-60960000D01*
X96288000Y-63268000D02*
X95250000Y-62230000D01*
%TO.N,Net-(C1-Pad2)*%
X97028000Y-59668000D02*
X99038000Y-59668000D01*
X99038000Y-59668000D02*
X99060000Y-59690000D01*
%TO.N,Net-(C2-Pad1)*%
X102108000Y-63268000D02*
X103102000Y-63268000D01*
X103102000Y-63268000D02*
X104140000Y-62230000D01*
%TO.N,Net-(C2-Pad2)*%
X100330000Y-61446000D02*
X100330000Y-62230000D01*
X102108000Y-59668000D02*
X100330000Y-61446000D01*
%TO.N,+5V*%
X92366000Y-63581000D02*
X93391000Y-63581000D01*
X92366000Y-63581000D02*
X92366000Y-58071000D01*
X93391000Y-63581000D02*
X93980000Y-62992000D01*
X92366000Y-58071000D02*
X91699000Y-57404000D01*
%TO.N,+10V*%
X99104000Y-68580000D02*
X99104000Y-67354000D01*
X99104000Y-67354000D02*
X99060000Y-67310000D01*
%TO.N,-10V*%
X102870000Y-67310000D02*
X102870000Y-66040000D01*
X102848000Y-68580000D02*
X102848000Y-67332000D01*
X102848000Y-67332000D02*
X102870000Y-67310000D01*
%TD*%
%TA.AperFunction,Conductor*%
%TO.N,GND*%
G36*
X88727401Y-55900002D02*
G01*
X88773894Y-55953658D01*
X88783998Y-56023932D01*
X88754504Y-56088512D01*
X88698425Y-56125765D01*
X88635868Y-56146212D01*
X88626359Y-56150209D01*
X88437463Y-56248542D01*
X88428738Y-56254036D01*
X88258433Y-56381905D01*
X88250726Y-56388748D01*
X88103590Y-56542717D01*
X88097104Y-56550727D01*
X87977098Y-56726649D01*
X87972000Y-56735623D01*
X87882338Y-56928783D01*
X87878775Y-56938470D01*
X87823389Y-57138183D01*
X87824912Y-57146607D01*
X87837292Y-57150000D01*
X89287000Y-57150000D01*
X89355121Y-57170002D01*
X89401614Y-57223658D01*
X89413000Y-57276000D01*
X89413000Y-58722517D01*
X89417064Y-58736359D01*
X89430478Y-58738393D01*
X89437184Y-58737534D01*
X89447262Y-58735392D01*
X89651255Y-58674191D01*
X89660842Y-58670433D01*
X89852095Y-58576739D01*
X89860945Y-58571464D01*
X90034328Y-58447792D01*
X90042193Y-58441145D01*
X90146897Y-58336805D01*
X90209268Y-58302889D01*
X90280075Y-58308077D01*
X90336837Y-58350723D01*
X90353819Y-58381826D01*
X90398385Y-58500705D01*
X90485739Y-58617261D01*
X90602295Y-58704615D01*
X90738684Y-58755745D01*
X90800866Y-58762500D01*
X91606500Y-58762500D01*
X91674621Y-58782502D01*
X91721114Y-58836158D01*
X91732500Y-58888500D01*
X91732500Y-62747116D01*
X91712498Y-62815237D01*
X91658842Y-62861730D01*
X91617793Y-62871826D01*
X91617866Y-62872500D01*
X91555684Y-62879255D01*
X91419295Y-62930385D01*
X91302739Y-63017739D01*
X91215385Y-63134295D01*
X91212235Y-63142699D01*
X91210518Y-63145834D01*
X91160259Y-63195979D01*
X91090868Y-63210992D01*
X91024376Y-63186106D01*
X90981894Y-63129222D01*
X90973999Y-63085323D01*
X90973999Y-62786331D01*
X90973629Y-62779510D01*
X90968105Y-62728648D01*
X90964478Y-62713394D01*
X90922055Y-62600229D01*
X90916872Y-62529422D01*
X90922055Y-62511771D01*
X90964478Y-62398609D01*
X90968105Y-62383351D01*
X90973631Y-62332486D01*
X90974000Y-62325672D01*
X90974000Y-61403115D01*
X90969525Y-61387876D01*
X90968135Y-61386671D01*
X90960452Y-61385000D01*
X89788115Y-61385000D01*
X89772876Y-61389475D01*
X89771671Y-61390865D01*
X89770000Y-61398548D01*
X89770000Y-68358885D01*
X89774475Y-68374124D01*
X89775865Y-68375329D01*
X89783548Y-68377000D01*
X90955884Y-68377000D01*
X90971123Y-68372525D01*
X90972328Y-68371135D01*
X90973999Y-68363452D01*
X90973999Y-68307885D01*
X93696000Y-68307885D01*
X93700475Y-68323124D01*
X93701865Y-68324329D01*
X93709548Y-68326000D01*
X95231885Y-68326000D01*
X95247124Y-68321525D01*
X95248329Y-68320135D01*
X95250000Y-68312452D01*
X95250000Y-67290116D01*
X95245525Y-67274877D01*
X95244135Y-67273672D01*
X95236452Y-67272001D01*
X94406905Y-67272001D01*
X94400386Y-67272338D01*
X94304794Y-67282257D01*
X94291400Y-67285149D01*
X94137216Y-67336588D01*
X94124038Y-67342761D01*
X93986193Y-67428063D01*
X93974792Y-67437099D01*
X93860261Y-67551829D01*
X93851249Y-67563240D01*
X93766184Y-67701243D01*
X93760037Y-67714424D01*
X93708862Y-67868710D01*
X93705995Y-67882086D01*
X93696328Y-67976438D01*
X93696000Y-67982855D01*
X93696000Y-68307885D01*
X90973999Y-68307885D01*
X90973999Y-67436331D01*
X90973629Y-67429510D01*
X90968105Y-67378648D01*
X90964478Y-67363394D01*
X90922055Y-67250229D01*
X90916872Y-67179422D01*
X90922055Y-67161771D01*
X90964478Y-67048609D01*
X90968105Y-67033351D01*
X90973631Y-66982486D01*
X90974000Y-66975672D01*
X90974000Y-66675626D01*
X90994002Y-66607505D01*
X91047658Y-66561012D01*
X91117932Y-66550908D01*
X91182512Y-66580402D01*
X91210520Y-66615117D01*
X91221212Y-66634646D01*
X91297715Y-66736724D01*
X91310276Y-66749285D01*
X91412351Y-66825786D01*
X91427946Y-66834324D01*
X91548394Y-66879478D01*
X91563649Y-66883105D01*
X91614514Y-66888631D01*
X91621328Y-66889000D01*
X92147885Y-66889000D01*
X92163124Y-66884525D01*
X92164329Y-66883135D01*
X92166000Y-66875452D01*
X92166000Y-66365500D01*
X92186002Y-66297379D01*
X92239658Y-66250886D01*
X92292000Y-66239500D01*
X92443372Y-66239500D01*
X92511493Y-66259502D01*
X92557986Y-66313158D01*
X92568090Y-66383432D01*
X92566492Y-66392285D01*
X92566000Y-66394547D01*
X92566000Y-66870884D01*
X92570475Y-66886123D01*
X92571865Y-66887328D01*
X92579548Y-66888999D01*
X93110669Y-66888999D01*
X93117490Y-66888629D01*
X93168352Y-66883105D01*
X93183604Y-66879479D01*
X93304054Y-66834324D01*
X93319649Y-66825786D01*
X93421724Y-66749285D01*
X93434285Y-66736724D01*
X93510786Y-66634649D01*
X93519324Y-66619054D01*
X93564478Y-66498606D01*
X93568105Y-66483351D01*
X93573631Y-66432486D01*
X93574000Y-66425672D01*
X93574000Y-66399115D01*
X93569525Y-66383876D01*
X93568135Y-66382671D01*
X93560452Y-66381000D01*
X93424884Y-66381000D01*
X93356763Y-66360998D01*
X93310270Y-66307342D01*
X93300166Y-66237068D01*
X93329660Y-66172488D01*
X93349319Y-66154174D01*
X93422081Y-66099642D01*
X93429261Y-66094261D01*
X93477242Y-66030240D01*
X93534101Y-65987725D01*
X93542570Y-65984909D01*
X93571123Y-65976525D01*
X93572328Y-65975135D01*
X93573999Y-65967452D01*
X93573999Y-65936331D01*
X93573629Y-65929510D01*
X93567252Y-65870793D01*
X93569998Y-65870495D01*
X93569940Y-65841554D01*
X93567745Y-65841316D01*
X93574131Y-65782531D01*
X93574500Y-65779134D01*
X93574500Y-65282866D01*
X93567745Y-65220684D01*
X93570174Y-65220420D01*
X93570174Y-65191580D01*
X93567745Y-65191316D01*
X93574131Y-65132531D01*
X93574500Y-65129134D01*
X93574500Y-64632866D01*
X93567745Y-64570684D01*
X93570174Y-64570420D01*
X93570174Y-64541580D01*
X93567745Y-64541316D01*
X93574131Y-64482531D01*
X93574500Y-64479134D01*
X93574500Y-64279034D01*
X93594502Y-64210913D01*
X93645127Y-64167923D01*
X93644592Y-64167019D01*
X93649863Y-64163902D01*
X93649866Y-64163900D01*
X93651416Y-64162983D01*
X93651420Y-64162981D01*
X93662028Y-64156707D01*
X93679776Y-64148012D01*
X93698617Y-64140552D01*
X93734387Y-64114564D01*
X93744307Y-64108048D01*
X93775535Y-64089580D01*
X93775538Y-64089578D01*
X93782362Y-64085542D01*
X93796683Y-64071221D01*
X93811717Y-64058380D01*
X93821693Y-64051132D01*
X93828107Y-64046472D01*
X93856293Y-64012401D01*
X93864282Y-64003622D01*
X93930499Y-63937405D01*
X93992811Y-63903379D01*
X94019594Y-63900500D01*
X94075487Y-63900500D01*
X94081939Y-63899128D01*
X94081944Y-63899128D01*
X94168888Y-63880647D01*
X94262288Y-63860794D01*
X94349992Y-63821746D01*
X94430722Y-63785803D01*
X94430724Y-63785802D01*
X94436752Y-63783118D01*
X94459032Y-63766931D01*
X94551986Y-63699395D01*
X94591253Y-63670866D01*
X94719040Y-63528944D01*
X94814527Y-63363556D01*
X94873542Y-63181928D01*
X94877804Y-63141379D01*
X94887062Y-63053295D01*
X94914075Y-62987638D01*
X94972297Y-62947009D01*
X95043242Y-62944306D01*
X95101467Y-62977371D01*
X95682595Y-63558499D01*
X95716621Y-63620811D01*
X95719500Y-63647594D01*
X95719500Y-64368400D01*
X95730474Y-64474166D01*
X95786450Y-64641946D01*
X95879522Y-64792348D01*
X96004697Y-64917305D01*
X96010927Y-64921145D01*
X96010928Y-64921146D01*
X96148090Y-65005694D01*
X96155262Y-65010115D01*
X96211141Y-65028649D01*
X96316611Y-65063632D01*
X96316613Y-65063632D01*
X96323139Y-65065797D01*
X96329975Y-65066497D01*
X96329978Y-65066498D01*
X96373031Y-65070909D01*
X96427600Y-65076500D01*
X97628400Y-65076500D01*
X97631646Y-65076163D01*
X97631650Y-65076163D01*
X97727308Y-65066238D01*
X97727312Y-65066237D01*
X97734166Y-65065526D01*
X97740702Y-65063345D01*
X97740704Y-65063345D01*
X97890424Y-65013394D01*
X97901946Y-65009550D01*
X98052348Y-64916478D01*
X98177305Y-64791303D01*
X98270115Y-64640738D01*
X98325797Y-64472861D01*
X98336500Y-64368400D01*
X98336500Y-62167600D01*
X98336163Y-62164350D01*
X98326238Y-62068692D01*
X98326237Y-62068688D01*
X98325526Y-62061834D01*
X98269550Y-61894054D01*
X98176478Y-61743652D01*
X98051303Y-61618695D01*
X97980829Y-61575254D01*
X97933337Y-61522483D01*
X97921913Y-61452411D01*
X97950187Y-61387288D01*
X97980642Y-61360851D01*
X98052348Y-61316478D01*
X98177305Y-61191303D01*
X98189082Y-61172198D01*
X98266275Y-61046968D01*
X98266276Y-61046966D01*
X98270115Y-61040738D01*
X98325797Y-60872861D01*
X98336500Y-60768400D01*
X98336500Y-60534603D01*
X98356502Y-60466482D01*
X98410158Y-60419989D01*
X98480432Y-60409885D01*
X98536561Y-60432667D01*
X98603248Y-60481118D01*
X98609276Y-60483802D01*
X98609278Y-60483803D01*
X98771681Y-60556109D01*
X98777712Y-60558794D01*
X98871113Y-60578647D01*
X98958056Y-60597128D01*
X98958061Y-60597128D01*
X98964513Y-60598500D01*
X99155487Y-60598500D01*
X99161939Y-60597128D01*
X99161944Y-60597128D01*
X99248887Y-60578647D01*
X99342288Y-60558794D01*
X99348319Y-60556109D01*
X99510722Y-60483803D01*
X99510724Y-60483802D01*
X99516752Y-60481118D01*
X99671253Y-60368866D01*
X99750247Y-60281134D01*
X99794621Y-60231852D01*
X99794622Y-60231851D01*
X99799040Y-60226944D01*
X99862227Y-60117501D01*
X99891223Y-60067279D01*
X99891224Y-60067278D01*
X99894527Y-60061556D01*
X99953542Y-59879928D01*
X99973504Y-59690000D01*
X99953542Y-59500072D01*
X99894527Y-59318444D01*
X99799040Y-59153056D01*
X99733710Y-59080499D01*
X99675675Y-59016045D01*
X99675674Y-59016044D01*
X99671253Y-59011134D01*
X99572157Y-58939136D01*
X99522094Y-58902763D01*
X99522093Y-58902762D01*
X99516752Y-58898882D01*
X99510724Y-58896198D01*
X99510722Y-58896197D01*
X99348319Y-58823891D01*
X99348318Y-58823891D01*
X99342288Y-58821206D01*
X99248887Y-58801353D01*
X99161944Y-58782872D01*
X99161939Y-58782872D01*
X99155487Y-58781500D01*
X98964513Y-58781500D01*
X98958061Y-58782872D01*
X98958056Y-58782872D01*
X98871113Y-58801353D01*
X98777712Y-58821206D01*
X98771682Y-58823891D01*
X98771681Y-58823891D01*
X98609278Y-58896197D01*
X98609276Y-58896198D01*
X98603248Y-58898882D01*
X98597907Y-58902762D01*
X98597906Y-58902763D01*
X98536561Y-58947333D01*
X98469693Y-58971192D01*
X98400542Y-58955111D01*
X98351061Y-58904197D01*
X98336500Y-58845397D01*
X98336500Y-58567600D01*
X98329575Y-58500858D01*
X98326238Y-58468692D01*
X98326237Y-58468688D01*
X98325526Y-58461834D01*
X98294229Y-58368024D01*
X98271868Y-58301002D01*
X98269550Y-58294054D01*
X98176478Y-58143652D01*
X98051303Y-58018695D01*
X98045072Y-58014854D01*
X97906968Y-57929725D01*
X97906966Y-57929724D01*
X97900738Y-57925885D01*
X97740254Y-57872655D01*
X97739389Y-57872368D01*
X97739387Y-57872368D01*
X97732861Y-57870203D01*
X97726025Y-57869503D01*
X97726022Y-57869502D01*
X97682969Y-57865091D01*
X97628400Y-57859500D01*
X96427600Y-57859500D01*
X96424354Y-57859837D01*
X96424350Y-57859837D01*
X96328692Y-57869762D01*
X96328688Y-57869763D01*
X96321834Y-57870474D01*
X96315298Y-57872655D01*
X96315296Y-57872655D01*
X96183194Y-57916728D01*
X96154054Y-57926450D01*
X96003652Y-58019522D01*
X95878695Y-58144697D01*
X95785885Y-58295262D01*
X95730203Y-58463139D01*
X95719500Y-58567600D01*
X95719500Y-59980535D01*
X95699498Y-60048656D01*
X95645842Y-60095149D01*
X95575568Y-60105253D01*
X95542249Y-60095641D01*
X95538319Y-60093891D01*
X95538318Y-60093891D01*
X95532288Y-60091206D01*
X95419721Y-60067279D01*
X95351944Y-60052872D01*
X95351939Y-60052872D01*
X95345487Y-60051500D01*
X95154513Y-60051500D01*
X95148061Y-60052872D01*
X95148056Y-60052872D01*
X95080279Y-60067279D01*
X94967712Y-60091206D01*
X94961682Y-60093891D01*
X94961681Y-60093891D01*
X94799278Y-60166197D01*
X94799276Y-60166198D01*
X94793248Y-60168882D01*
X94638747Y-60281134D01*
X94634326Y-60286044D01*
X94634325Y-60286045D01*
X94549115Y-60380681D01*
X94510960Y-60423056D01*
X94415473Y-60588444D01*
X94356458Y-60770072D01*
X94355768Y-60776633D01*
X94355768Y-60776635D01*
X94344968Y-60879389D01*
X94336496Y-60960000D01*
X94337186Y-60966565D01*
X94354178Y-61128232D01*
X94356458Y-61149928D01*
X94415473Y-61331556D01*
X94418776Y-61337278D01*
X94418777Y-61337279D01*
X94432591Y-61361206D01*
X94510960Y-61496944D01*
X94584137Y-61578215D01*
X94614853Y-61642221D01*
X94616500Y-61662524D01*
X94616500Y-62087218D01*
X94596498Y-62155339D01*
X94542842Y-62201832D01*
X94472568Y-62211936D01*
X94437270Y-62199718D01*
X94436752Y-62200882D01*
X94268319Y-62125891D01*
X94268318Y-62125891D01*
X94262288Y-62123206D01*
X94168887Y-62103353D01*
X94081944Y-62084872D01*
X94081939Y-62084872D01*
X94075487Y-62083500D01*
X93884513Y-62083500D01*
X93878061Y-62084872D01*
X93878056Y-62084872D01*
X93791113Y-62103353D01*
X93697712Y-62123206D01*
X93691682Y-62125891D01*
X93691681Y-62125891D01*
X93529278Y-62198197D01*
X93529276Y-62198198D01*
X93523248Y-62200882D01*
X93517907Y-62204762D01*
X93517906Y-62204763D01*
X93483171Y-62230000D01*
X93368747Y-62313134D01*
X93364326Y-62318044D01*
X93364325Y-62318045D01*
X93266937Y-62426206D01*
X93240960Y-62455056D01*
X93237659Y-62460774D01*
X93234619Y-62466039D01*
X93183237Y-62515032D01*
X93113523Y-62528468D01*
X93047612Y-62502082D01*
X93006430Y-62444250D01*
X92999500Y-62403039D01*
X92999500Y-58523854D01*
X93007518Y-58479625D01*
X93047971Y-58371718D01*
X93047973Y-58371712D01*
X93050745Y-58364316D01*
X93057500Y-58302134D01*
X93057500Y-56505866D01*
X93050745Y-56443684D01*
X92999615Y-56307295D01*
X92912261Y-56190739D01*
X92800296Y-56106825D01*
X92757781Y-56049967D01*
X92752755Y-55979148D01*
X92786815Y-55916855D01*
X92849146Y-55882865D01*
X92875861Y-55880000D01*
X115698000Y-55880000D01*
X115766121Y-55900002D01*
X115812614Y-55953658D01*
X115824000Y-56006000D01*
X115824000Y-74042000D01*
X115803998Y-74110121D01*
X115750342Y-74156614D01*
X115698000Y-74168000D01*
X114547460Y-74168000D01*
X114479339Y-74147998D01*
X114432846Y-74094342D01*
X114422742Y-74024068D01*
X114452236Y-73959488D01*
X114511253Y-73921314D01*
X114533425Y-73914662D01*
X114533427Y-73914661D01*
X114538384Y-73913174D01*
X114738994Y-73814896D01*
X114920860Y-73685173D01*
X115079096Y-73527489D01*
X115209453Y-73346077D01*
X115308430Y-73145811D01*
X115373370Y-72932069D01*
X115402529Y-72710590D01*
X115404156Y-72644000D01*
X115385852Y-72421361D01*
X115331431Y-72204702D01*
X115242354Y-71999840D01*
X115160576Y-71873430D01*
X115123822Y-71816617D01*
X115123820Y-71816614D01*
X115121014Y-71812277D01*
X114970670Y-71647051D01*
X114966619Y-71643852D01*
X114966615Y-71643848D01*
X114799414Y-71511800D01*
X114799410Y-71511798D01*
X114795359Y-71508598D01*
X114769062Y-71494081D01*
X114667970Y-71438276D01*
X114599789Y-71400638D01*
X114594920Y-71398914D01*
X114594916Y-71398912D01*
X114394087Y-71327795D01*
X114394083Y-71327794D01*
X114389212Y-71326069D01*
X114384119Y-71325162D01*
X114384116Y-71325161D01*
X114174373Y-71287800D01*
X114174367Y-71287799D01*
X114169284Y-71286894D01*
X114095452Y-71285992D01*
X113951081Y-71284228D01*
X113951079Y-71284228D01*
X113945911Y-71284165D01*
X113725091Y-71317955D01*
X113512756Y-71387357D01*
X113314607Y-71490507D01*
X113310474Y-71493610D01*
X113310471Y-71493612D01*
X113155025Y-71610324D01*
X113135965Y-71624635D01*
X113132393Y-71628373D01*
X113054898Y-71709466D01*
X112993374Y-71744895D01*
X112922462Y-71741438D01*
X112864676Y-71700192D01*
X112845823Y-71666644D01*
X112804324Y-71555946D01*
X112795786Y-71540351D01*
X112719285Y-71438276D01*
X112706724Y-71425715D01*
X112604649Y-71349214D01*
X112589054Y-71340676D01*
X112468606Y-71295522D01*
X112453351Y-71291895D01*
X112402486Y-71286369D01*
X112395672Y-71286000D01*
X111773115Y-71286000D01*
X111757876Y-71290475D01*
X111756671Y-71291865D01*
X111755000Y-71299548D01*
X111755000Y-72772000D01*
X111734998Y-72840121D01*
X111681342Y-72886614D01*
X111629000Y-72898000D01*
X110161116Y-72898000D01*
X110145877Y-72902475D01*
X110144672Y-72903865D01*
X110143001Y-72911548D01*
X110143001Y-73538669D01*
X110143371Y-73545490D01*
X110148895Y-73596352D01*
X110152521Y-73611604D01*
X110197676Y-73732054D01*
X110206214Y-73747649D01*
X110282715Y-73849724D01*
X110295276Y-73862285D01*
X110400538Y-73941174D01*
X110443053Y-73998033D01*
X110448079Y-74068851D01*
X110414019Y-74131145D01*
X110351688Y-74165135D01*
X110324973Y-74168000D01*
X106299523Y-74168000D01*
X106231402Y-74147998D01*
X106184909Y-74094342D01*
X106174805Y-74024068D01*
X106204299Y-73959488D01*
X106226352Y-73939423D01*
X106292332Y-73892360D01*
X106450568Y-73734676D01*
X106580925Y-73553264D01*
X106588139Y-73538669D01*
X106677608Y-73357640D01*
X106677609Y-73357638D01*
X106679902Y-73352998D01*
X106741440Y-73150453D01*
X106743337Y-73144210D01*
X106743337Y-73144208D01*
X106744842Y-73139256D01*
X106774001Y-72917777D01*
X106774484Y-72898000D01*
X106775546Y-72854552D01*
X106775546Y-72854548D01*
X106775628Y-72851187D01*
X106757324Y-72628548D01*
X106702903Y-72411889D01*
X106685509Y-72371885D01*
X110143000Y-72371885D01*
X110147475Y-72387124D01*
X110148865Y-72388329D01*
X110156548Y-72390000D01*
X111228885Y-72390000D01*
X111244124Y-72385525D01*
X111245329Y-72384135D01*
X111247000Y-72376452D01*
X111247000Y-71304116D01*
X111242525Y-71288877D01*
X111241135Y-71287672D01*
X111233452Y-71286001D01*
X110606331Y-71286001D01*
X110599510Y-71286371D01*
X110548648Y-71291895D01*
X110533396Y-71295521D01*
X110412946Y-71340676D01*
X110397351Y-71349214D01*
X110295276Y-71425715D01*
X110282715Y-71438276D01*
X110206214Y-71540351D01*
X110197676Y-71555946D01*
X110152522Y-71676394D01*
X110148895Y-71691649D01*
X110143369Y-71742514D01*
X110143000Y-71749328D01*
X110143000Y-72371885D01*
X106685509Y-72371885D01*
X106613826Y-72207027D01*
X106492486Y-72019464D01*
X106342142Y-71854238D01*
X106338091Y-71851039D01*
X106338087Y-71851035D01*
X106170886Y-71718987D01*
X106170882Y-71718985D01*
X106166831Y-71715785D01*
X105971261Y-71607825D01*
X105966392Y-71606101D01*
X105966388Y-71606099D01*
X105765559Y-71534982D01*
X105765555Y-71534981D01*
X105760684Y-71533256D01*
X105755591Y-71532349D01*
X105755588Y-71532348D01*
X105545845Y-71494987D01*
X105545839Y-71494986D01*
X105540756Y-71494081D01*
X105466924Y-71493179D01*
X105322553Y-71491415D01*
X105322551Y-71491415D01*
X105317383Y-71491352D01*
X105096563Y-71525142D01*
X104884228Y-71594544D01*
X104686079Y-71697694D01*
X104681946Y-71700797D01*
X104681943Y-71700799D01*
X104527688Y-71816617D01*
X104507437Y-71831822D01*
X104451009Y-71890871D01*
X104426755Y-71916251D01*
X104365231Y-71951681D01*
X104294318Y-71948224D01*
X104236532Y-71906978D01*
X104217679Y-71873430D01*
X104176239Y-71762890D01*
X104173087Y-71754482D01*
X104085733Y-71637926D01*
X103969177Y-71550572D01*
X103832788Y-71499442D01*
X103770606Y-71492687D01*
X101974338Y-71492687D01*
X101912156Y-71499442D01*
X101775767Y-71550572D01*
X101659211Y-71637926D01*
X101571857Y-71754482D01*
X101520727Y-71890871D01*
X101513972Y-71953053D01*
X101513972Y-73749321D01*
X101520727Y-73811503D01*
X101571857Y-73947892D01*
X101577240Y-73955075D01*
X101577242Y-73955078D01*
X101585755Y-73966436D01*
X101610602Y-74032942D01*
X101595549Y-74102325D01*
X101545374Y-74152554D01*
X101484928Y-74168000D01*
X86994000Y-74168000D01*
X86925879Y-74147998D01*
X86879386Y-74094342D01*
X86868000Y-74042000D01*
X86868000Y-69825669D01*
X88058001Y-69825669D01*
X88058371Y-69832490D01*
X88063895Y-69883352D01*
X88067521Y-69898604D01*
X88112676Y-70019054D01*
X88121214Y-70034649D01*
X88197715Y-70136724D01*
X88210276Y-70149285D01*
X88312351Y-70225786D01*
X88327946Y-70234324D01*
X88448394Y-70279478D01*
X88463649Y-70283105D01*
X88514514Y-70288631D01*
X88521328Y-70289000D01*
X89243885Y-70289000D01*
X89259124Y-70284525D01*
X89260329Y-70283135D01*
X89262000Y-70275452D01*
X89262000Y-70270884D01*
X89770000Y-70270884D01*
X89774475Y-70286123D01*
X89775865Y-70287328D01*
X89783548Y-70288999D01*
X90510669Y-70288999D01*
X90517490Y-70288629D01*
X90568352Y-70283105D01*
X90583604Y-70279479D01*
X90704054Y-70234324D01*
X90719649Y-70225786D01*
X90821724Y-70149285D01*
X90834285Y-70136724D01*
X90910786Y-70034649D01*
X90919324Y-70019054D01*
X90964478Y-69898606D01*
X90968105Y-69883351D01*
X90973631Y-69832486D01*
X90974000Y-69825672D01*
X90974000Y-69177095D01*
X93696001Y-69177095D01*
X93696338Y-69183614D01*
X93706257Y-69279206D01*
X93709149Y-69292600D01*
X93760588Y-69446784D01*
X93766761Y-69459962D01*
X93852063Y-69597807D01*
X93861099Y-69609208D01*
X93975829Y-69723739D01*
X93987240Y-69732751D01*
X94125243Y-69817816D01*
X94138424Y-69823963D01*
X94292710Y-69875138D01*
X94306086Y-69878005D01*
X94400438Y-69887672D01*
X94406854Y-69888000D01*
X95231885Y-69888000D01*
X95247124Y-69883525D01*
X95248329Y-69882135D01*
X95250000Y-69874452D01*
X95250000Y-69869884D01*
X95758000Y-69869884D01*
X95762475Y-69885123D01*
X95763865Y-69886328D01*
X95771548Y-69887999D01*
X96601095Y-69887999D01*
X96607614Y-69887662D01*
X96703206Y-69877743D01*
X96716600Y-69874851D01*
X96870784Y-69823412D01*
X96883962Y-69817239D01*
X97021807Y-69731937D01*
X97033208Y-69722901D01*
X97147739Y-69608171D01*
X97156751Y-69596760D01*
X97196451Y-69532354D01*
X97249223Y-69484861D01*
X97319294Y-69473437D01*
X97384418Y-69501711D01*
X97410854Y-69532166D01*
X97455522Y-69604348D01*
X97580697Y-69729305D01*
X97586927Y-69733145D01*
X97586928Y-69733146D01*
X97724288Y-69817816D01*
X97731262Y-69822115D01*
X97762530Y-69832486D01*
X97892611Y-69875632D01*
X97892613Y-69875632D01*
X97899139Y-69877797D01*
X97905975Y-69878497D01*
X97905978Y-69878498D01*
X97949031Y-69882909D01*
X98003600Y-69888500D01*
X100204400Y-69888500D01*
X100207646Y-69888163D01*
X100207650Y-69888163D01*
X100303308Y-69878238D01*
X100303312Y-69878237D01*
X100310166Y-69877526D01*
X100316702Y-69875345D01*
X100316704Y-69875345D01*
X100465600Y-69825669D01*
X100477946Y-69821550D01*
X100628348Y-69728478D01*
X100753305Y-69603303D01*
X100797039Y-69532354D01*
X100842275Y-69458968D01*
X100842276Y-69458966D01*
X100846115Y-69452738D01*
X100856457Y-69421558D01*
X100896887Y-69363198D01*
X100962451Y-69335960D01*
X101032332Y-69348493D01*
X101084345Y-69396817D01*
X101095573Y-69421346D01*
X101104130Y-69446995D01*
X101104133Y-69447002D01*
X101106450Y-69453946D01*
X101199522Y-69604348D01*
X101324697Y-69729305D01*
X101330927Y-69733145D01*
X101330928Y-69733146D01*
X101468288Y-69817816D01*
X101475262Y-69822115D01*
X101506530Y-69832486D01*
X101636611Y-69875632D01*
X101636613Y-69875632D01*
X101643139Y-69877797D01*
X101649975Y-69878497D01*
X101649978Y-69878498D01*
X101693031Y-69882909D01*
X101747600Y-69888500D01*
X103948400Y-69888500D01*
X103951646Y-69888163D01*
X103951650Y-69888163D01*
X104047308Y-69878238D01*
X104047312Y-69878237D01*
X104054166Y-69877526D01*
X104060702Y-69875345D01*
X104060704Y-69875345D01*
X104209600Y-69825669D01*
X104221946Y-69821550D01*
X104372348Y-69728478D01*
X104497305Y-69603303D01*
X104541040Y-69532352D01*
X104593811Y-69484860D01*
X104663883Y-69473436D01*
X104729006Y-69501710D01*
X104755443Y-69532166D01*
X104796063Y-69597807D01*
X104805099Y-69609208D01*
X104919829Y-69723739D01*
X104931240Y-69732751D01*
X105069243Y-69817816D01*
X105082424Y-69823963D01*
X105236710Y-69875138D01*
X105250086Y-69878005D01*
X105344438Y-69887672D01*
X105350854Y-69888000D01*
X106175885Y-69888000D01*
X106191124Y-69883525D01*
X106192329Y-69882135D01*
X106194000Y-69874452D01*
X106194000Y-69869884D01*
X106702000Y-69869884D01*
X106706475Y-69885123D01*
X106707865Y-69886328D01*
X106715548Y-69887999D01*
X107545095Y-69887999D01*
X107551614Y-69887662D01*
X107647206Y-69877743D01*
X107660600Y-69874851D01*
X107814784Y-69823412D01*
X107827962Y-69817239D01*
X107965807Y-69731937D01*
X107977208Y-69722901D01*
X108091739Y-69608171D01*
X108100751Y-69596760D01*
X108185816Y-69458757D01*
X108191963Y-69445576D01*
X108243138Y-69291290D01*
X108246005Y-69277914D01*
X108255672Y-69183562D01*
X108256000Y-69177145D01*
X108256000Y-68852115D01*
X108251525Y-68836876D01*
X108250135Y-68835671D01*
X108242452Y-68834000D01*
X106720115Y-68834000D01*
X106704876Y-68838475D01*
X106703671Y-68839865D01*
X106702000Y-68847548D01*
X106702000Y-69869884D01*
X106194000Y-69869884D01*
X106194000Y-68307885D01*
X106702000Y-68307885D01*
X106706475Y-68323124D01*
X106707865Y-68324329D01*
X106715548Y-68326000D01*
X108237884Y-68326000D01*
X108253123Y-68321525D01*
X108254328Y-68320135D01*
X108255999Y-68312452D01*
X108255999Y-67982905D01*
X108255662Y-67976386D01*
X108245743Y-67880794D01*
X108242851Y-67867400D01*
X108191412Y-67713216D01*
X108185239Y-67700038D01*
X108099937Y-67562193D01*
X108090901Y-67550792D01*
X107976171Y-67436261D01*
X107964760Y-67427249D01*
X107826757Y-67342184D01*
X107813576Y-67336037D01*
X107659290Y-67284862D01*
X107645914Y-67281995D01*
X107551562Y-67272328D01*
X107545145Y-67272000D01*
X106720115Y-67272000D01*
X106704876Y-67276475D01*
X106703671Y-67277865D01*
X106702000Y-67285548D01*
X106702000Y-68307885D01*
X106194000Y-68307885D01*
X106194000Y-67290116D01*
X106189525Y-67274877D01*
X106188135Y-67273672D01*
X106180452Y-67272001D01*
X105350905Y-67272001D01*
X105344386Y-67272338D01*
X105248794Y-67282257D01*
X105235400Y-67285149D01*
X105081216Y-67336588D01*
X105068038Y-67342761D01*
X104930193Y-67428063D01*
X104918792Y-67437099D01*
X104804261Y-67551829D01*
X104795249Y-67563240D01*
X104755549Y-67627646D01*
X104702777Y-67675139D01*
X104632706Y-67686563D01*
X104567582Y-67658289D01*
X104541145Y-67627833D01*
X104500332Y-67561880D01*
X104496478Y-67555652D01*
X104371303Y-67430695D01*
X104262121Y-67363394D01*
X104226968Y-67341725D01*
X104226966Y-67341724D01*
X104220738Y-67337885D01*
X104140995Y-67311436D01*
X104059389Y-67284368D01*
X104059387Y-67284368D01*
X104052861Y-67282203D01*
X104046025Y-67281503D01*
X104046022Y-67281502D01*
X104002969Y-67277091D01*
X103948400Y-67271500D01*
X103629500Y-67271500D01*
X103561379Y-67251498D01*
X103514886Y-67197842D01*
X103503500Y-67145500D01*
X103503500Y-66742524D01*
X103523502Y-66674403D01*
X103535858Y-66658221D01*
X103609040Y-66576944D01*
X103704527Y-66411556D01*
X103763542Y-66229928D01*
X103777236Y-66099642D01*
X103782814Y-66046565D01*
X103783504Y-66040000D01*
X103776833Y-65976525D01*
X103764232Y-65856635D01*
X103764232Y-65856633D01*
X103763542Y-65850072D01*
X103704527Y-65668444D01*
X103609040Y-65503056D01*
X103481253Y-65361134D01*
X103378230Y-65286283D01*
X103332094Y-65252763D01*
X103332093Y-65252762D01*
X103326752Y-65248882D01*
X103320724Y-65246198D01*
X103320722Y-65246197D01*
X103158319Y-65173891D01*
X103158318Y-65173891D01*
X103152288Y-65171206D01*
X103145827Y-65169833D01*
X103145825Y-65169832D01*
X103138023Y-65168173D01*
X103075550Y-65134444D01*
X103041230Y-65072293D01*
X103045959Y-65001455D01*
X103088236Y-64944418D01*
X103097908Y-64937790D01*
X103132348Y-64916478D01*
X103257305Y-64791303D01*
X103350115Y-64640738D01*
X103405797Y-64472861D01*
X103416500Y-64368400D01*
X103416500Y-63889867D01*
X103436502Y-63821746D01*
X103478362Y-63781413D01*
X103493362Y-63772542D01*
X103507683Y-63758221D01*
X103522717Y-63745380D01*
X103532694Y-63738131D01*
X103539107Y-63733472D01*
X103567298Y-63699395D01*
X103575288Y-63690616D01*
X104090499Y-63175405D01*
X104152811Y-63141379D01*
X104179594Y-63138500D01*
X104235487Y-63138500D01*
X104241939Y-63137128D01*
X104241944Y-63137128D01*
X104328887Y-63118647D01*
X104422288Y-63098794D01*
X104428319Y-63096109D01*
X104590722Y-63023803D01*
X104590724Y-63023802D01*
X104596752Y-63021118D01*
X104751253Y-62908866D01*
X104784604Y-62871826D01*
X104874621Y-62771852D01*
X104874622Y-62771851D01*
X104879040Y-62766944D01*
X104974527Y-62601556D01*
X105033542Y-62419928D01*
X105037387Y-62383351D01*
X105052814Y-62236565D01*
X105053504Y-62230000D01*
X105042280Y-62123206D01*
X105034232Y-62046635D01*
X105034232Y-62046633D01*
X105033542Y-62040072D01*
X104974527Y-61858444D01*
X104879040Y-61693056D01*
X104751253Y-61551134D01*
X104647668Y-61475875D01*
X104602094Y-61442763D01*
X104602093Y-61442762D01*
X104596752Y-61438882D01*
X104590724Y-61436198D01*
X104590722Y-61436197D01*
X104428319Y-61363891D01*
X104428318Y-61363891D01*
X104422288Y-61361206D01*
X104309721Y-61337279D01*
X104241944Y-61322872D01*
X104241939Y-61322872D01*
X104235487Y-61321500D01*
X104044513Y-61321500D01*
X104038061Y-61322872D01*
X104038056Y-61322872D01*
X103970279Y-61337279D01*
X103857712Y-61361206D01*
X103851682Y-61363891D01*
X103851681Y-61363891D01*
X103689278Y-61436197D01*
X103689276Y-61436198D01*
X103683248Y-61438882D01*
X103677907Y-61442762D01*
X103677906Y-61442763D01*
X103632332Y-61475875D01*
X103528747Y-61551134D01*
X103400960Y-61693056D01*
X103399821Y-61692030D01*
X103349827Y-61730582D01*
X103279090Y-61736658D01*
X103215094Y-61702340D01*
X103136483Y-61623866D01*
X103131303Y-61618695D01*
X103060829Y-61575254D01*
X103013337Y-61522483D01*
X103001913Y-61452411D01*
X103030187Y-61387288D01*
X103060642Y-61360851D01*
X103132348Y-61316478D01*
X103257305Y-61191303D01*
X103269082Y-61172198D01*
X103346275Y-61046968D01*
X103346276Y-61046966D01*
X103350115Y-61040738D01*
X103405797Y-60872861D01*
X103416500Y-60768400D01*
X103416500Y-59436000D01*
X106970807Y-59436000D01*
X106989542Y-59650142D01*
X106990966Y-59655455D01*
X106990966Y-59655457D01*
X107032924Y-59812043D01*
X107045178Y-59857777D01*
X107047500Y-59862757D01*
X107047501Y-59862759D01*
X107124744Y-60028405D01*
X107136024Y-60052596D01*
X107259319Y-60228681D01*
X107411319Y-60380681D01*
X107587403Y-60503976D01*
X107592381Y-60506297D01*
X107592384Y-60506299D01*
X107756272Y-60582721D01*
X107782223Y-60594822D01*
X107787531Y-60596244D01*
X107787533Y-60596245D01*
X107984543Y-60649034D01*
X107984545Y-60649034D01*
X107989858Y-60650458D01*
X108204000Y-60669193D01*
X108418142Y-60650458D01*
X108423455Y-60649034D01*
X108423457Y-60649034D01*
X108620467Y-60596245D01*
X108620469Y-60596244D01*
X108625777Y-60594822D01*
X108651728Y-60582721D01*
X108815616Y-60506299D01*
X108815619Y-60506297D01*
X108820597Y-60503976D01*
X108996681Y-60380681D01*
X109148681Y-60228681D01*
X109271976Y-60052596D01*
X109283257Y-60028405D01*
X109359805Y-59864247D01*
X109406723Y-59810962D01*
X109475000Y-59791501D01*
X109542960Y-59812043D01*
X109588195Y-59864247D01*
X109664744Y-60028405D01*
X109676024Y-60052596D01*
X109799319Y-60228681D01*
X109951319Y-60380681D01*
X110127403Y-60503976D01*
X110132381Y-60506297D01*
X110132384Y-60506299D01*
X110296272Y-60582721D01*
X110322223Y-60594822D01*
X110327531Y-60596244D01*
X110327533Y-60596245D01*
X110524543Y-60649034D01*
X110524545Y-60649034D01*
X110529858Y-60650458D01*
X110744000Y-60669193D01*
X110958142Y-60650458D01*
X110963455Y-60649034D01*
X110963457Y-60649034D01*
X111160467Y-60596245D01*
X111160469Y-60596244D01*
X111165777Y-60594822D01*
X111191728Y-60582721D01*
X111355616Y-60506299D01*
X111355619Y-60506297D01*
X111360597Y-60503976D01*
X111536681Y-60380681D01*
X111688681Y-60228681D01*
X111811976Y-60052596D01*
X111823257Y-60028405D01*
X111899805Y-59864247D01*
X111946723Y-59810962D01*
X112015000Y-59791501D01*
X112082960Y-59812043D01*
X112128195Y-59864247D01*
X112204744Y-60028405D01*
X112216024Y-60052596D01*
X112339319Y-60228681D01*
X112491319Y-60380681D01*
X112667403Y-60503976D01*
X112672381Y-60506297D01*
X112672384Y-60506299D01*
X112836272Y-60582721D01*
X112862223Y-60594822D01*
X112867531Y-60596244D01*
X112867533Y-60596245D01*
X113064543Y-60649034D01*
X113064545Y-60649034D01*
X113069858Y-60650458D01*
X113284000Y-60669193D01*
X113498142Y-60650458D01*
X113503455Y-60649034D01*
X113503457Y-60649034D01*
X113700467Y-60596245D01*
X113700469Y-60596244D01*
X113705777Y-60594822D01*
X113731728Y-60582721D01*
X113895616Y-60506299D01*
X113895619Y-60506297D01*
X113900597Y-60503976D01*
X114076681Y-60380681D01*
X114228681Y-60228681D01*
X114351976Y-60052596D01*
X114363257Y-60028405D01*
X114440499Y-59862759D01*
X114440500Y-59862757D01*
X114442822Y-59857777D01*
X114455077Y-59812043D01*
X114497034Y-59655457D01*
X114497034Y-59655455D01*
X114498458Y-59650142D01*
X114517193Y-59436000D01*
X114498458Y-59221858D01*
X114481555Y-59158774D01*
X114444245Y-59019533D01*
X114444244Y-59019531D01*
X114442822Y-59014223D01*
X114422756Y-58971192D01*
X114354299Y-58824385D01*
X114354297Y-58824382D01*
X114351976Y-58819404D01*
X114228681Y-58643319D01*
X114076681Y-58491319D01*
X113900597Y-58368024D01*
X113895619Y-58365703D01*
X113895616Y-58365701D01*
X113710759Y-58279501D01*
X113710758Y-58279500D01*
X113705777Y-58277178D01*
X113700469Y-58275756D01*
X113700467Y-58275755D01*
X113503457Y-58222966D01*
X113503455Y-58222966D01*
X113498142Y-58221542D01*
X113284000Y-58202807D01*
X113069858Y-58221542D01*
X113064545Y-58222966D01*
X113064543Y-58222966D01*
X112867533Y-58275755D01*
X112867531Y-58275756D01*
X112862223Y-58277178D01*
X112857243Y-58279500D01*
X112857241Y-58279501D01*
X112672385Y-58365701D01*
X112672382Y-58365703D01*
X112667404Y-58368024D01*
X112491319Y-58491319D01*
X112339319Y-58643319D01*
X112216024Y-58819404D01*
X112213703Y-58824382D01*
X112213701Y-58824385D01*
X112128195Y-59007753D01*
X112081277Y-59061038D01*
X112013000Y-59080499D01*
X111945040Y-59059957D01*
X111899805Y-59007753D01*
X111814299Y-58824385D01*
X111814297Y-58824382D01*
X111811976Y-58819404D01*
X111688681Y-58643319D01*
X111536681Y-58491319D01*
X111360597Y-58368024D01*
X111355619Y-58365703D01*
X111355616Y-58365701D01*
X111170759Y-58279501D01*
X111170758Y-58279500D01*
X111165777Y-58277178D01*
X111160469Y-58275756D01*
X111160467Y-58275755D01*
X110963457Y-58222966D01*
X110963455Y-58222966D01*
X110958142Y-58221542D01*
X110744000Y-58202807D01*
X110529858Y-58221542D01*
X110524545Y-58222966D01*
X110524543Y-58222966D01*
X110327533Y-58275755D01*
X110327531Y-58275756D01*
X110322223Y-58277178D01*
X110317243Y-58279500D01*
X110317241Y-58279501D01*
X110132385Y-58365701D01*
X110132382Y-58365703D01*
X110127404Y-58368024D01*
X109951319Y-58491319D01*
X109799319Y-58643319D01*
X109676024Y-58819404D01*
X109673703Y-58824382D01*
X109673701Y-58824385D01*
X109588195Y-59007753D01*
X109541277Y-59061038D01*
X109473000Y-59080499D01*
X109405040Y-59059957D01*
X109359805Y-59007753D01*
X109274299Y-58824385D01*
X109274297Y-58824382D01*
X109271976Y-58819404D01*
X109148681Y-58643319D01*
X108996681Y-58491319D01*
X108820597Y-58368024D01*
X108815619Y-58365703D01*
X108815616Y-58365701D01*
X108630759Y-58279501D01*
X108630758Y-58279500D01*
X108625777Y-58277178D01*
X108620469Y-58275756D01*
X108620467Y-58275755D01*
X108423457Y-58222966D01*
X108423455Y-58222966D01*
X108418142Y-58221542D01*
X108204000Y-58202807D01*
X107989858Y-58221542D01*
X107984545Y-58222966D01*
X107984543Y-58222966D01*
X107787533Y-58275755D01*
X107787531Y-58275756D01*
X107782223Y-58277178D01*
X107777243Y-58279500D01*
X107777241Y-58279501D01*
X107592385Y-58365701D01*
X107592382Y-58365703D01*
X107587404Y-58368024D01*
X107411319Y-58491319D01*
X107259319Y-58643319D01*
X107136024Y-58819404D01*
X107133703Y-58824382D01*
X107133701Y-58824385D01*
X107065244Y-58971192D01*
X107045178Y-59014223D01*
X107043756Y-59019531D01*
X107043755Y-59019533D01*
X107006445Y-59158774D01*
X106989542Y-59221858D01*
X106970807Y-59436000D01*
X103416500Y-59436000D01*
X103416500Y-58567600D01*
X103409575Y-58500858D01*
X103406238Y-58468692D01*
X103406237Y-58468688D01*
X103405526Y-58461834D01*
X103374229Y-58368024D01*
X103351868Y-58301002D01*
X103349550Y-58294054D01*
X103256478Y-58143652D01*
X103131303Y-58018695D01*
X103125072Y-58014854D01*
X102986968Y-57929725D01*
X102986966Y-57929724D01*
X102980738Y-57925885D01*
X102820254Y-57872655D01*
X102819389Y-57872368D01*
X102819387Y-57872368D01*
X102812861Y-57870203D01*
X102806025Y-57869503D01*
X102806022Y-57869502D01*
X102762969Y-57865091D01*
X102708400Y-57859500D01*
X101507600Y-57859500D01*
X101504354Y-57859837D01*
X101504350Y-57859837D01*
X101408692Y-57869762D01*
X101408688Y-57869763D01*
X101401834Y-57870474D01*
X101395298Y-57872655D01*
X101395296Y-57872655D01*
X101263194Y-57916728D01*
X101234054Y-57926450D01*
X101083652Y-58019522D01*
X100958695Y-58144697D01*
X100865885Y-58295262D01*
X100810203Y-58463139D01*
X100799500Y-58567600D01*
X100799500Y-60028405D01*
X100779498Y-60096526D01*
X100762595Y-60117501D01*
X99937742Y-60942353D01*
X99929463Y-60949887D01*
X99922982Y-60954000D01*
X99917348Y-60960000D01*
X99876357Y-61003651D01*
X99873602Y-61006493D01*
X99853865Y-61026230D01*
X99851385Y-61029427D01*
X99843682Y-61038447D01*
X99813414Y-61070679D01*
X99809595Y-61077625D01*
X99809593Y-61077628D01*
X99803652Y-61088434D01*
X99792801Y-61104953D01*
X99780386Y-61120959D01*
X99777241Y-61128228D01*
X99777238Y-61128232D01*
X99762826Y-61161537D01*
X99757609Y-61172187D01*
X99736305Y-61210940D01*
X99734334Y-61218615D01*
X99734334Y-61218616D01*
X99731267Y-61230562D01*
X99724863Y-61249266D01*
X99716819Y-61267855D01*
X99715580Y-61275678D01*
X99715577Y-61275688D01*
X99709901Y-61311524D01*
X99707495Y-61323144D01*
X99703866Y-61337279D01*
X99696500Y-61365970D01*
X99696500Y-61386224D01*
X99694949Y-61405934D01*
X99691780Y-61425943D01*
X99695751Y-61467946D01*
X99695941Y-61469961D01*
X99696500Y-61481819D01*
X99696500Y-61527476D01*
X99676498Y-61595597D01*
X99664142Y-61611779D01*
X99590960Y-61693056D01*
X99495473Y-61858444D01*
X99436458Y-62040072D01*
X99435768Y-62046633D01*
X99435768Y-62046635D01*
X99427720Y-62123206D01*
X99416496Y-62230000D01*
X99417186Y-62236565D01*
X99432614Y-62383351D01*
X99436458Y-62419928D01*
X99495473Y-62601556D01*
X99590960Y-62766944D01*
X99595378Y-62771851D01*
X99595379Y-62771852D01*
X99685396Y-62871826D01*
X99718747Y-62908866D01*
X99873248Y-63021118D01*
X99879276Y-63023802D01*
X99879278Y-63023803D01*
X100041681Y-63096109D01*
X100047712Y-63098794D01*
X100141113Y-63118647D01*
X100228056Y-63137128D01*
X100228061Y-63137128D01*
X100234513Y-63138500D01*
X100425487Y-63138500D01*
X100431939Y-63137128D01*
X100431944Y-63137128D01*
X100518887Y-63118647D01*
X100612288Y-63098794D01*
X100622249Y-63094359D01*
X100692616Y-63084924D01*
X100756914Y-63115029D01*
X100794728Y-63175117D01*
X100799500Y-63209465D01*
X100799500Y-64368400D01*
X100810474Y-64474166D01*
X100866450Y-64641946D01*
X100959522Y-64792348D01*
X101084697Y-64917305D01*
X101090927Y-64921145D01*
X101090928Y-64921146D01*
X101228090Y-65005694D01*
X101235262Y-65010115D01*
X101291141Y-65028649D01*
X101396611Y-65063632D01*
X101396613Y-65063632D01*
X101403139Y-65065797D01*
X101409975Y-65066497D01*
X101409978Y-65066498D01*
X101453031Y-65070909D01*
X101507600Y-65076500D01*
X102262724Y-65076500D01*
X102330845Y-65096502D01*
X102377338Y-65150158D01*
X102387442Y-65220432D01*
X102357948Y-65285012D01*
X102336786Y-65304435D01*
X102258747Y-65361134D01*
X102130960Y-65503056D01*
X102035473Y-65668444D01*
X101976458Y-65850072D01*
X101975768Y-65856633D01*
X101975768Y-65856635D01*
X101963167Y-65976525D01*
X101956496Y-66040000D01*
X101957186Y-66046565D01*
X101962765Y-66099642D01*
X101976458Y-66229928D01*
X102035473Y-66411556D01*
X102130960Y-66576944D01*
X102204137Y-66658215D01*
X102234853Y-66722221D01*
X102236500Y-66742524D01*
X102236500Y-67133696D01*
X102233654Y-67153672D01*
X102234818Y-67153856D01*
X102233019Y-67165213D01*
X102231576Y-67168257D01*
X102231487Y-67168882D01*
X102231357Y-67169329D01*
X102231103Y-67169255D01*
X102202606Y-67229366D01*
X102142337Y-67266891D01*
X102108571Y-67271500D01*
X101747600Y-67271500D01*
X101744354Y-67271837D01*
X101744350Y-67271837D01*
X101648692Y-67281762D01*
X101648688Y-67281763D01*
X101641834Y-67282474D01*
X101635298Y-67284655D01*
X101635296Y-67284655D01*
X101618928Y-67290116D01*
X101474054Y-67338450D01*
X101323652Y-67431522D01*
X101198695Y-67556697D01*
X101194855Y-67562927D01*
X101194854Y-67562928D01*
X101136073Y-67658289D01*
X101105885Y-67707262D01*
X101098473Y-67729608D01*
X101095543Y-67738442D01*
X101055113Y-67796802D01*
X100989549Y-67824040D01*
X100919668Y-67811507D01*
X100867655Y-67763183D01*
X100856427Y-67738654D01*
X100847870Y-67713005D01*
X100847867Y-67712998D01*
X100845550Y-67706054D01*
X100752478Y-67555652D01*
X100627303Y-67430695D01*
X100518121Y-67363394D01*
X100482968Y-67341725D01*
X100482966Y-67341724D01*
X100476738Y-67337885D01*
X100396995Y-67311436D01*
X100315389Y-67284368D01*
X100315387Y-67284368D01*
X100308861Y-67282203D01*
X100302025Y-67281503D01*
X100302022Y-67281502D01*
X100258969Y-67277091D01*
X100204400Y-67271500D01*
X100082909Y-67271500D01*
X100014788Y-67251498D01*
X99968295Y-67197842D01*
X99957599Y-67158671D01*
X99954232Y-67126636D01*
X99954232Y-67126635D01*
X99953542Y-67120072D01*
X99894527Y-66938444D01*
X99799040Y-66773056D01*
X99671253Y-66631134D01*
X99516752Y-66518882D01*
X99510724Y-66516198D01*
X99510722Y-66516197D01*
X99348319Y-66443891D01*
X99348318Y-66443891D01*
X99342288Y-66441206D01*
X99229721Y-66417279D01*
X99161944Y-66402872D01*
X99161939Y-66402872D01*
X99155487Y-66401500D01*
X98964513Y-66401500D01*
X98958061Y-66402872D01*
X98958056Y-66402872D01*
X98890279Y-66417279D01*
X98777712Y-66441206D01*
X98771682Y-66443891D01*
X98771681Y-66443891D01*
X98609278Y-66516197D01*
X98609276Y-66516198D01*
X98603248Y-66518882D01*
X98448747Y-66631134D01*
X98320960Y-66773056D01*
X98225473Y-66938444D01*
X98166458Y-67120072D01*
X98165768Y-67126635D01*
X98165768Y-67126636D01*
X98162401Y-67158671D01*
X98135388Y-67224328D01*
X98077166Y-67264957D01*
X98037091Y-67271500D01*
X98003600Y-67271500D01*
X98000354Y-67271837D01*
X98000350Y-67271837D01*
X97904692Y-67281762D01*
X97904688Y-67281763D01*
X97897834Y-67282474D01*
X97891298Y-67284655D01*
X97891296Y-67284655D01*
X97874928Y-67290116D01*
X97730054Y-67338450D01*
X97579652Y-67431522D01*
X97454695Y-67556697D01*
X97410962Y-67627646D01*
X97410961Y-67627647D01*
X97358189Y-67675140D01*
X97288117Y-67686564D01*
X97222994Y-67658290D01*
X97196557Y-67627834D01*
X97155937Y-67562193D01*
X97146901Y-67550792D01*
X97032171Y-67436261D01*
X97020760Y-67427249D01*
X96882757Y-67342184D01*
X96869576Y-67336037D01*
X96715290Y-67284862D01*
X96701914Y-67281995D01*
X96607562Y-67272328D01*
X96601145Y-67272000D01*
X95776115Y-67272000D01*
X95760876Y-67276475D01*
X95759671Y-67277865D01*
X95758000Y-67285548D01*
X95758000Y-69869884D01*
X95250000Y-69869884D01*
X95250000Y-68852115D01*
X95245525Y-68836876D01*
X95244135Y-68835671D01*
X95236452Y-68834000D01*
X93714116Y-68834000D01*
X93698877Y-68838475D01*
X93697672Y-68839865D01*
X93696001Y-68847548D01*
X93696001Y-69177095D01*
X90974000Y-69177095D01*
X90974000Y-68903115D01*
X90969525Y-68887876D01*
X90968135Y-68886671D01*
X90960452Y-68885000D01*
X89788115Y-68885000D01*
X89772876Y-68889475D01*
X89771671Y-68890865D01*
X89770000Y-68898548D01*
X89770000Y-70270884D01*
X89262000Y-70270884D01*
X89262000Y-68903115D01*
X89257525Y-68887876D01*
X89256135Y-68886671D01*
X89248452Y-68885000D01*
X88076116Y-68885000D01*
X88060877Y-68889475D01*
X88059672Y-68890865D01*
X88058001Y-68898548D01*
X88058001Y-69825669D01*
X86868000Y-69825669D01*
X86868000Y-68358885D01*
X88058000Y-68358885D01*
X88062475Y-68374124D01*
X88063865Y-68375329D01*
X88071548Y-68377000D01*
X89243885Y-68377000D01*
X89259124Y-68372525D01*
X89260329Y-68371135D01*
X89262000Y-68363452D01*
X89262000Y-66303115D01*
X89257525Y-66287876D01*
X89256135Y-66286671D01*
X89248452Y-66285000D01*
X88076116Y-66285000D01*
X88060877Y-66289475D01*
X88059672Y-66290865D01*
X88058001Y-66298548D01*
X88058001Y-66975669D01*
X88058371Y-66982490D01*
X88063895Y-67033352D01*
X88067522Y-67048606D01*
X88109945Y-67161771D01*
X88115128Y-67232578D01*
X88109945Y-67250229D01*
X88067522Y-67363391D01*
X88063895Y-67378649D01*
X88058369Y-67429514D01*
X88058000Y-67436328D01*
X88058000Y-68358885D01*
X86868000Y-68358885D01*
X86868000Y-65758885D01*
X88058000Y-65758885D01*
X88062475Y-65774124D01*
X88063865Y-65775329D01*
X88071548Y-65777000D01*
X89243885Y-65777000D01*
X89259124Y-65772525D01*
X89260329Y-65771135D01*
X89262000Y-65763452D01*
X89262000Y-64003115D01*
X89257525Y-63987876D01*
X89256135Y-63986671D01*
X89248452Y-63985000D01*
X88076116Y-63985000D01*
X88060877Y-63989475D01*
X88059672Y-63990865D01*
X88058001Y-63998548D01*
X88058001Y-64675669D01*
X88058371Y-64682490D01*
X88063895Y-64733352D01*
X88067521Y-64748604D01*
X88100573Y-64836770D01*
X88105756Y-64907578D01*
X88100573Y-64925230D01*
X88067522Y-65013394D01*
X88063895Y-65028649D01*
X88058369Y-65079514D01*
X88058000Y-65086328D01*
X88058000Y-65758885D01*
X86868000Y-65758885D01*
X86868000Y-63458885D01*
X88058000Y-63458885D01*
X88062475Y-63474124D01*
X88063865Y-63475329D01*
X88071548Y-63477000D01*
X89243885Y-63477000D01*
X89259124Y-63472525D01*
X89260329Y-63471135D01*
X89262000Y-63463452D01*
X89262000Y-61403115D01*
X89257525Y-61387876D01*
X89256135Y-61386671D01*
X89248452Y-61385000D01*
X88076116Y-61385000D01*
X88060877Y-61389475D01*
X88059672Y-61390865D01*
X88058001Y-61398548D01*
X88058001Y-62325669D01*
X88058371Y-62332490D01*
X88063895Y-62383352D01*
X88067522Y-62398606D01*
X88109945Y-62511771D01*
X88115128Y-62582578D01*
X88109945Y-62600229D01*
X88067522Y-62713391D01*
X88063895Y-62728649D01*
X88058369Y-62779514D01*
X88058000Y-62786328D01*
X88058000Y-63458885D01*
X86868000Y-63458885D01*
X86868000Y-60858885D01*
X88058000Y-60858885D01*
X88062475Y-60874124D01*
X88063865Y-60875329D01*
X88071548Y-60877000D01*
X89243885Y-60877000D01*
X89259124Y-60872525D01*
X89260329Y-60871135D01*
X89262000Y-60863452D01*
X89262000Y-60858885D01*
X89770000Y-60858885D01*
X89774475Y-60874124D01*
X89775865Y-60875329D01*
X89783548Y-60877000D01*
X90955884Y-60877000D01*
X90971123Y-60872525D01*
X90972328Y-60871135D01*
X90973999Y-60863452D01*
X90973999Y-59936331D01*
X90973629Y-59929510D01*
X90968105Y-59878648D01*
X90964479Y-59863396D01*
X90919324Y-59742946D01*
X90910786Y-59727351D01*
X90834285Y-59625276D01*
X90821724Y-59612715D01*
X90719649Y-59536214D01*
X90704054Y-59527676D01*
X90583606Y-59482522D01*
X90568351Y-59478895D01*
X90517486Y-59473369D01*
X90510672Y-59473000D01*
X89788115Y-59473000D01*
X89772876Y-59477475D01*
X89771671Y-59478865D01*
X89770000Y-59486548D01*
X89770000Y-60858885D01*
X89262000Y-60858885D01*
X89262000Y-59491116D01*
X89257525Y-59475877D01*
X89256135Y-59474672D01*
X89248452Y-59473001D01*
X88521331Y-59473001D01*
X88514510Y-59473371D01*
X88463648Y-59478895D01*
X88448396Y-59482521D01*
X88327946Y-59527676D01*
X88312351Y-59536214D01*
X88210276Y-59612715D01*
X88197715Y-59625276D01*
X88121214Y-59727351D01*
X88112676Y-59742946D01*
X88067522Y-59863394D01*
X88063895Y-59878649D01*
X88058369Y-59929514D01*
X88058000Y-59936328D01*
X88058000Y-60858885D01*
X86868000Y-60858885D01*
X86868000Y-57671966D01*
X87827257Y-57671966D01*
X87857565Y-57806446D01*
X87860645Y-57816275D01*
X87940770Y-58013603D01*
X87945413Y-58022794D01*
X88056694Y-58204388D01*
X88062777Y-58212699D01*
X88202213Y-58373667D01*
X88209580Y-58380883D01*
X88373434Y-58516916D01*
X88381881Y-58522831D01*
X88565756Y-58630279D01*
X88575042Y-58634729D01*
X88774001Y-58710703D01*
X88783899Y-58713579D01*
X88887250Y-58734606D01*
X88901299Y-58733410D01*
X88905000Y-58723065D01*
X88905000Y-57676115D01*
X88900525Y-57660876D01*
X88899135Y-57659671D01*
X88891452Y-57658000D01*
X87842225Y-57658000D01*
X87828694Y-57661973D01*
X87827257Y-57671966D01*
X86868000Y-57671966D01*
X86868000Y-56006000D01*
X86888002Y-55937879D01*
X86941658Y-55891386D01*
X86994000Y-55880000D01*
X88659280Y-55880000D01*
X88727401Y-55900002D01*
G37*
%TD.AperFunction*%
%TD*%
M02*
