%TF.GenerationSoftware,KiCad,Pcbnew,(6.0.0)*%
%TF.CreationDate,2022-12-01T22:20:14+01:00*%
%TF.ProjectId,current_measurement,63757272-656e-4745-9f6d-656173757265,1.0*%
%TF.SameCoordinates,Original*%
%TF.FileFunction,Legend,Top*%
%TF.FilePolarity,Positive*%
%FSLAX46Y46*%
G04 Gerber Fmt 4.6, Leading zero omitted, Abs format (unit mm)*
G04 Created by KiCad (PCBNEW (6.0.0)) date 2022-12-01 22:20:14*
%MOMM*%
%LPD*%
G01*
G04 APERTURE LIST*
%ADD10C,0.150000*%
%ADD11C,0.100000*%
%ADD12C,0.120000*%
G04 APERTURE END LIST*
D10*
X113974666Y-70064380D02*
X114165142Y-70064380D01*
X114260380Y-70112000D01*
X114355619Y-70207238D01*
X114403238Y-70397714D01*
X114403238Y-70731047D01*
X114355619Y-70921523D01*
X114260380Y-71016761D01*
X114165142Y-71064380D01*
X113974666Y-71064380D01*
X113879428Y-71016761D01*
X113784190Y-70921523D01*
X113736571Y-70731047D01*
X113736571Y-70397714D01*
X113784190Y-70207238D01*
X113879428Y-70112000D01*
X113974666Y-70064380D01*
X115260380Y-70397714D02*
X115260380Y-71064380D01*
X114831809Y-70397714D02*
X114831809Y-70921523D01*
X114879428Y-71016761D01*
X114974666Y-71064380D01*
X115117523Y-71064380D01*
X115212761Y-71016761D01*
X115260380Y-70969142D01*
X115593714Y-70397714D02*
X115974666Y-70397714D01*
X115736571Y-70064380D02*
X115736571Y-70921523D01*
X115784190Y-71016761D01*
X115879428Y-71064380D01*
X115974666Y-71064380D01*
X87571142Y-71895857D02*
X87535428Y-71931571D01*
X87428285Y-71967285D01*
X87356857Y-71967285D01*
X87249714Y-71931571D01*
X87178285Y-71860142D01*
X87142571Y-71788714D01*
X87106857Y-71645857D01*
X87106857Y-71538714D01*
X87142571Y-71395857D01*
X87178285Y-71324428D01*
X87249714Y-71253000D01*
X87356857Y-71217285D01*
X87428285Y-71217285D01*
X87535428Y-71253000D01*
X87571142Y-71288714D01*
X88214000Y-71467285D02*
X88214000Y-71967285D01*
X87892571Y-71467285D02*
X87892571Y-71860142D01*
X87928285Y-71931571D01*
X87999714Y-71967285D01*
X88106857Y-71967285D01*
X88178285Y-71931571D01*
X88214000Y-71895857D01*
X88571142Y-71967285D02*
X88571142Y-71467285D01*
X88571142Y-71610142D02*
X88606857Y-71538714D01*
X88642571Y-71503000D01*
X88714000Y-71467285D01*
X88785428Y-71467285D01*
X89035428Y-71967285D02*
X89035428Y-71467285D01*
X89035428Y-71610142D02*
X89071142Y-71538714D01*
X89106857Y-71503000D01*
X89178285Y-71467285D01*
X89249714Y-71467285D01*
X89785428Y-71931571D02*
X89714000Y-71967285D01*
X89571142Y-71967285D01*
X89499714Y-71931571D01*
X89464000Y-71860142D01*
X89464000Y-71574428D01*
X89499714Y-71503000D01*
X89571142Y-71467285D01*
X89714000Y-71467285D01*
X89785428Y-71503000D01*
X89821142Y-71574428D01*
X89821142Y-71645857D01*
X89464000Y-71717285D01*
X90142571Y-71467285D02*
X90142571Y-71967285D01*
X90142571Y-71538714D02*
X90178285Y-71503000D01*
X90249714Y-71467285D01*
X90356857Y-71467285D01*
X90428285Y-71503000D01*
X90464000Y-71574428D01*
X90464000Y-71967285D01*
X90714000Y-71467285D02*
X90999714Y-71467285D01*
X90821142Y-71217285D02*
X90821142Y-71860142D01*
X90856857Y-71931571D01*
X90928285Y-71967285D01*
X90999714Y-71967285D01*
X91821142Y-71967285D02*
X91821142Y-71217285D01*
X92071142Y-71753000D01*
X92321142Y-71217285D01*
X92321142Y-71967285D01*
X92964000Y-71931571D02*
X92892571Y-71967285D01*
X92749714Y-71967285D01*
X92678285Y-71931571D01*
X92642571Y-71860142D01*
X92642571Y-71574428D01*
X92678285Y-71503000D01*
X92749714Y-71467285D01*
X92892571Y-71467285D01*
X92964000Y-71503000D01*
X92999714Y-71574428D01*
X92999714Y-71645857D01*
X92642571Y-71717285D01*
X93642571Y-71967285D02*
X93642571Y-71574428D01*
X93606857Y-71503000D01*
X93535428Y-71467285D01*
X93392571Y-71467285D01*
X93321142Y-71503000D01*
X93642571Y-71931571D02*
X93571142Y-71967285D01*
X93392571Y-71967285D01*
X93321142Y-71931571D01*
X93285428Y-71860142D01*
X93285428Y-71788714D01*
X93321142Y-71717285D01*
X93392571Y-71681571D01*
X93571142Y-71681571D01*
X93642571Y-71645857D01*
X93964000Y-71931571D02*
X94035428Y-71967285D01*
X94178285Y-71967285D01*
X94249714Y-71931571D01*
X94285428Y-71860142D01*
X94285428Y-71824428D01*
X94249714Y-71753000D01*
X94178285Y-71717285D01*
X94071142Y-71717285D01*
X93999714Y-71681571D01*
X93964000Y-71610142D01*
X93964000Y-71574428D01*
X93999714Y-71503000D01*
X94071142Y-71467285D01*
X94178285Y-71467285D01*
X94249714Y-71503000D01*
X94928285Y-71467285D02*
X94928285Y-71967285D01*
X94606857Y-71467285D02*
X94606857Y-71860142D01*
X94642571Y-71931571D01*
X94714000Y-71967285D01*
X94821142Y-71967285D01*
X94892571Y-71931571D01*
X94928285Y-71895857D01*
X95285428Y-71967285D02*
X95285428Y-71467285D01*
X95285428Y-71610142D02*
X95321142Y-71538714D01*
X95356857Y-71503000D01*
X95428285Y-71467285D01*
X95499714Y-71467285D01*
X96035428Y-71931571D02*
X95964000Y-71967285D01*
X95821142Y-71967285D01*
X95749714Y-71931571D01*
X95714000Y-71860142D01*
X95714000Y-71574428D01*
X95749714Y-71503000D01*
X95821142Y-71467285D01*
X95964000Y-71467285D01*
X96035428Y-71503000D01*
X96071142Y-71574428D01*
X96071142Y-71645857D01*
X95714000Y-71717285D01*
X96392571Y-71967285D02*
X96392571Y-71467285D01*
X96392571Y-71538714D02*
X96428285Y-71503000D01*
X96499714Y-71467285D01*
X96606857Y-71467285D01*
X96678285Y-71503000D01*
X96714000Y-71574428D01*
X96714000Y-71967285D01*
X96714000Y-71574428D02*
X96749714Y-71503000D01*
X96821142Y-71467285D01*
X96928285Y-71467285D01*
X96999714Y-71503000D01*
X97035428Y-71574428D01*
X97035428Y-71967285D01*
X97678285Y-71931571D02*
X97606857Y-71967285D01*
X97464000Y-71967285D01*
X97392571Y-71931571D01*
X97356857Y-71860142D01*
X97356857Y-71574428D01*
X97392571Y-71503000D01*
X97464000Y-71467285D01*
X97606857Y-71467285D01*
X97678285Y-71503000D01*
X97714000Y-71574428D01*
X97714000Y-71645857D01*
X97356857Y-71717285D01*
X98035428Y-71467285D02*
X98035428Y-71967285D01*
X98035428Y-71538714D02*
X98071142Y-71503000D01*
X98142571Y-71467285D01*
X98249714Y-71467285D01*
X98321142Y-71503000D01*
X98356857Y-71574428D01*
X98356857Y-71967285D01*
X98606857Y-71467285D02*
X98892571Y-71467285D01*
X98714000Y-71217285D02*
X98714000Y-71860142D01*
X98749714Y-71931571D01*
X98821142Y-71967285D01*
X98892571Y-71967285D01*
D11*
X87396476Y-73044857D02*
X87515523Y-73378190D01*
X87634571Y-73044857D01*
X88086952Y-73378190D02*
X87801238Y-73378190D01*
X87944095Y-73378190D02*
X87944095Y-72878190D01*
X87896476Y-72949619D01*
X87848857Y-72997238D01*
X87801238Y-73021047D01*
X88301238Y-73330571D02*
X88325047Y-73354380D01*
X88301238Y-73378190D01*
X88277428Y-73354380D01*
X88301238Y-73330571D01*
X88301238Y-73378190D01*
X88634571Y-72878190D02*
X88682190Y-72878190D01*
X88729809Y-72902000D01*
X88753619Y-72925809D01*
X88777428Y-72973428D01*
X88801238Y-73068666D01*
X88801238Y-73187714D01*
X88777428Y-73282952D01*
X88753619Y-73330571D01*
X88729809Y-73354380D01*
X88682190Y-73378190D01*
X88634571Y-73378190D01*
X88586952Y-73354380D01*
X88563142Y-73330571D01*
X88539333Y-73282952D01*
X88515523Y-73187714D01*
X88515523Y-73068666D01*
X88539333Y-72973428D01*
X88563142Y-72925809D01*
X88586952Y-72902000D01*
X88634571Y-72878190D01*
X89539333Y-73568666D02*
X89515523Y-73544857D01*
X89467904Y-73473428D01*
X89444095Y-73425809D01*
X89420285Y-73354380D01*
X89396476Y-73235333D01*
X89396476Y-73140095D01*
X89420285Y-73021047D01*
X89444095Y-72949619D01*
X89467904Y-72902000D01*
X89515523Y-72830571D01*
X89539333Y-72806761D01*
X89944095Y-73354380D02*
X89896476Y-73378190D01*
X89801238Y-73378190D01*
X89753619Y-73354380D01*
X89729809Y-73330571D01*
X89706000Y-73282952D01*
X89706000Y-73140095D01*
X89729809Y-73092476D01*
X89753619Y-73068666D01*
X89801238Y-73044857D01*
X89896476Y-73044857D01*
X89944095Y-73068666D01*
X90110761Y-73568666D02*
X90134571Y-73544857D01*
X90182190Y-73473428D01*
X90206000Y-73425809D01*
X90229809Y-73354380D01*
X90253619Y-73235333D01*
X90253619Y-73140095D01*
X90229809Y-73021047D01*
X90206000Y-72949619D01*
X90182190Y-72902000D01*
X90134571Y-72830571D01*
X90110761Y-72806761D01*
X91158380Y-73330571D02*
X91134571Y-73354380D01*
X91063142Y-73378190D01*
X91015523Y-73378190D01*
X90944095Y-73354380D01*
X90896476Y-73306761D01*
X90872666Y-73259142D01*
X90848857Y-73163904D01*
X90848857Y-73092476D01*
X90872666Y-72997238D01*
X90896476Y-72949619D01*
X90944095Y-72902000D01*
X91015523Y-72878190D01*
X91063142Y-72878190D01*
X91134571Y-72902000D01*
X91158380Y-72925809D01*
X91372666Y-73378190D02*
X91372666Y-72878190D01*
X91586952Y-73378190D02*
X91586952Y-73116285D01*
X91563142Y-73068666D01*
X91515523Y-73044857D01*
X91444095Y-73044857D01*
X91396476Y-73068666D01*
X91372666Y-73092476D01*
X91825047Y-73378190D02*
X91825047Y-73044857D01*
X91825047Y-73140095D02*
X91848857Y-73092476D01*
X91872666Y-73068666D01*
X91920285Y-73044857D01*
X91967904Y-73044857D01*
X92134571Y-73378190D02*
X92134571Y-73044857D01*
X92134571Y-72878190D02*
X92110761Y-72902000D01*
X92134571Y-72925809D01*
X92158380Y-72902000D01*
X92134571Y-72878190D01*
X92134571Y-72925809D01*
X92348857Y-73354380D02*
X92396476Y-73378190D01*
X92491714Y-73378190D01*
X92539333Y-73354380D01*
X92563142Y-73306761D01*
X92563142Y-73282952D01*
X92539333Y-73235333D01*
X92491714Y-73211523D01*
X92420285Y-73211523D01*
X92372666Y-73187714D01*
X92348857Y-73140095D01*
X92348857Y-73116285D01*
X92372666Y-73068666D01*
X92420285Y-73044857D01*
X92491714Y-73044857D01*
X92539333Y-73068666D01*
X92706000Y-73044857D02*
X92896476Y-73044857D01*
X92777428Y-72878190D02*
X92777428Y-73306761D01*
X92801238Y-73354380D01*
X92848857Y-73378190D01*
X92896476Y-73378190D01*
X93063142Y-73378190D02*
X93063142Y-73044857D01*
X93063142Y-72878190D02*
X93039333Y-72902000D01*
X93063142Y-72925809D01*
X93086952Y-72902000D01*
X93063142Y-72878190D01*
X93063142Y-72925809D01*
X93515523Y-73378190D02*
X93515523Y-73116285D01*
X93491714Y-73068666D01*
X93444095Y-73044857D01*
X93348857Y-73044857D01*
X93301238Y-73068666D01*
X93515523Y-73354380D02*
X93467904Y-73378190D01*
X93348857Y-73378190D01*
X93301238Y-73354380D01*
X93277428Y-73306761D01*
X93277428Y-73259142D01*
X93301238Y-73211523D01*
X93348857Y-73187714D01*
X93467904Y-73187714D01*
X93515523Y-73163904D01*
X93753619Y-73044857D02*
X93753619Y-73378190D01*
X93753619Y-73092476D02*
X93777428Y-73068666D01*
X93825047Y-73044857D01*
X93896476Y-73044857D01*
X93944095Y-73068666D01*
X93967904Y-73116285D01*
X93967904Y-73378190D01*
X94586952Y-73116285D02*
X94753619Y-73116285D01*
X94825047Y-73378190D02*
X94586952Y-73378190D01*
X94586952Y-72878190D01*
X94825047Y-72878190D01*
X95039333Y-73378190D02*
X95039333Y-73044857D01*
X95039333Y-72878190D02*
X95015523Y-72902000D01*
X95039333Y-72925809D01*
X95063142Y-72902000D01*
X95039333Y-72878190D01*
X95039333Y-72925809D01*
X95253619Y-73354380D02*
X95301238Y-73378190D01*
X95396476Y-73378190D01*
X95444095Y-73354380D01*
X95467904Y-73306761D01*
X95467904Y-73282952D01*
X95444095Y-73235333D01*
X95396476Y-73211523D01*
X95325047Y-73211523D01*
X95277428Y-73187714D01*
X95253619Y-73140095D01*
X95253619Y-73116285D01*
X95277428Y-73068666D01*
X95325047Y-73044857D01*
X95396476Y-73044857D01*
X95444095Y-73068666D01*
X95872666Y-73354380D02*
X95825047Y-73378190D01*
X95729809Y-73378190D01*
X95682190Y-73354380D01*
X95658380Y-73306761D01*
X95658380Y-73116285D01*
X95682190Y-73068666D01*
X95729809Y-73044857D01*
X95825047Y-73044857D01*
X95872666Y-73068666D01*
X95896476Y-73116285D01*
X95896476Y-73163904D01*
X95658380Y-73211523D01*
X96110761Y-73044857D02*
X96110761Y-73378190D01*
X96110761Y-73092476D02*
X96134571Y-73068666D01*
X96182190Y-73044857D01*
X96253619Y-73044857D01*
X96301238Y-73068666D01*
X96325047Y-73116285D01*
X96325047Y-73378190D01*
X96777428Y-73378190D02*
X96777428Y-72878190D01*
X96777428Y-73354380D02*
X96729809Y-73378190D01*
X96634571Y-73378190D01*
X96586952Y-73354380D01*
X96563142Y-73330571D01*
X96539333Y-73282952D01*
X96539333Y-73140095D01*
X96563142Y-73092476D01*
X96586952Y-73068666D01*
X96634571Y-73044857D01*
X96729809Y-73044857D01*
X96777428Y-73068666D01*
X97086952Y-73378190D02*
X97039333Y-73354380D01*
X97015523Y-73306761D01*
X97015523Y-72878190D01*
X97467904Y-73354380D02*
X97420285Y-73378190D01*
X97325047Y-73378190D01*
X97277428Y-73354380D01*
X97253619Y-73306761D01*
X97253619Y-73116285D01*
X97277428Y-73068666D01*
X97325047Y-73044857D01*
X97420285Y-73044857D01*
X97467904Y-73068666D01*
X97491714Y-73116285D01*
X97491714Y-73163904D01*
X97253619Y-73211523D01*
D10*
X109982095Y-70112000D02*
X109886857Y-70064380D01*
X109744000Y-70064380D01*
X109601142Y-70112000D01*
X109505904Y-70207238D01*
X109458285Y-70302476D01*
X109410666Y-70492952D01*
X109410666Y-70635809D01*
X109458285Y-70826285D01*
X109505904Y-70921523D01*
X109601142Y-71016761D01*
X109744000Y-71064380D01*
X109839238Y-71064380D01*
X109982095Y-71016761D01*
X110029714Y-70969142D01*
X110029714Y-70635809D01*
X109839238Y-70635809D01*
X110458285Y-71064380D02*
X110458285Y-70064380D01*
X111029714Y-71064380D01*
X111029714Y-70064380D01*
X111505904Y-71064380D02*
X111505904Y-70064380D01*
X111744000Y-70064380D01*
X111886857Y-70112000D01*
X111982095Y-70207238D01*
X112029714Y-70302476D01*
X112077333Y-70492952D01*
X112077333Y-70635809D01*
X112029714Y-70826285D01*
X111982095Y-70921523D01*
X111886857Y-71016761D01*
X111744000Y-71064380D01*
X111505904Y-71064380D01*
X87608178Y-56613416D02*
X87655797Y-56518178D01*
X87655797Y-56375321D01*
X87608178Y-56232463D01*
X87512939Y-56137225D01*
X87417701Y-56089606D01*
X87227225Y-56041987D01*
X87084368Y-56041987D01*
X86893892Y-56089606D01*
X86798654Y-56137225D01*
X86703416Y-56232463D01*
X86655797Y-56375321D01*
X86655797Y-56470559D01*
X86703416Y-56613416D01*
X86751035Y-56661035D01*
X87084368Y-56661035D01*
X87084368Y-56470559D01*
X86655797Y-57089606D02*
X87655797Y-57089606D01*
X86655797Y-57661035D01*
X87655797Y-57661035D01*
X86655797Y-58137225D02*
X87655797Y-58137225D01*
X87655797Y-58375321D01*
X87608178Y-58518178D01*
X87512939Y-58613416D01*
X87417701Y-58661035D01*
X87227225Y-58708654D01*
X87084368Y-58708654D01*
X86893892Y-58661035D01*
X86798654Y-58613416D01*
X86703416Y-58518178D01*
X86655797Y-58375321D01*
X86655797Y-58137225D01*
X93707589Y-55661665D02*
X93707589Y-56423570D01*
X93326637Y-56042618D02*
X94088541Y-56042618D01*
X94326637Y-57375951D02*
X94326637Y-56899760D01*
X93850446Y-56852141D01*
X93898065Y-56899760D01*
X93945684Y-56994999D01*
X93945684Y-57233094D01*
X93898065Y-57328332D01*
X93850446Y-57375951D01*
X93755208Y-57423570D01*
X93517113Y-57423570D01*
X93421875Y-57375951D01*
X93374256Y-57328332D01*
X93326637Y-57233094D01*
X93326637Y-56994999D01*
X93374256Y-56899760D01*
X93421875Y-56852141D01*
X94326637Y-57709284D02*
X93326637Y-58042618D01*
X94326637Y-58375951D01*
X106982095Y-62444380D02*
X107172571Y-62444380D01*
X107267809Y-62492000D01*
X107363047Y-62587238D01*
X107410666Y-62777714D01*
X107410666Y-63111047D01*
X107363047Y-63301523D01*
X107267809Y-63396761D01*
X107172571Y-63444380D01*
X106982095Y-63444380D01*
X106886857Y-63396761D01*
X106791619Y-63301523D01*
X106744000Y-63111047D01*
X106744000Y-62777714D01*
X106791619Y-62587238D01*
X106886857Y-62492000D01*
X106982095Y-62444380D01*
X107696380Y-62777714D02*
X108077333Y-62777714D01*
X107839238Y-63444380D02*
X107839238Y-62587238D01*
X107886857Y-62492000D01*
X107982095Y-62444380D01*
X108077333Y-62444380D01*
X108267809Y-62777714D02*
X108648761Y-62777714D01*
X108410666Y-63444380D02*
X108410666Y-62587238D01*
X108458285Y-62492000D01*
X108553523Y-62444380D01*
X108648761Y-62444380D01*
X108934476Y-63396761D02*
X109029714Y-63444380D01*
X109220190Y-63444380D01*
X109315428Y-63396761D01*
X109363047Y-63301523D01*
X109363047Y-63253904D01*
X109315428Y-63158666D01*
X109220190Y-63111047D01*
X109077333Y-63111047D01*
X108982095Y-63063428D01*
X108934476Y-62968190D01*
X108934476Y-62920571D01*
X108982095Y-62825333D01*
X109077333Y-62777714D01*
X109220190Y-62777714D01*
X109315428Y-62825333D01*
X110172571Y-63396761D02*
X110077333Y-63444380D01*
X109886857Y-63444380D01*
X109791619Y-63396761D01*
X109744000Y-63301523D01*
X109744000Y-62920571D01*
X109791619Y-62825333D01*
X109886857Y-62777714D01*
X110077333Y-62777714D01*
X110172571Y-62825333D01*
X110220190Y-62920571D01*
X110220190Y-63015809D01*
X109744000Y-63111047D01*
X110505904Y-62777714D02*
X110886857Y-62777714D01*
X110648761Y-62444380D02*
X110648761Y-63301523D01*
X110696380Y-63396761D01*
X110791619Y-63444380D01*
X110886857Y-63444380D01*
X111839238Y-62444380D02*
X112410666Y-62444380D01*
X112124952Y-63444380D02*
X112124952Y-62444380D01*
X112744000Y-63444380D02*
X112744000Y-62777714D01*
X112744000Y-62968190D02*
X112791619Y-62872952D01*
X112839238Y-62825333D01*
X112934476Y-62777714D01*
X113029714Y-62777714D01*
X113363047Y-63444380D02*
X113363047Y-62777714D01*
X113363047Y-62444380D02*
X113315428Y-62492000D01*
X113363047Y-62539619D01*
X113410666Y-62492000D01*
X113363047Y-62444380D01*
X113363047Y-62539619D01*
X113839238Y-63444380D02*
X113839238Y-62777714D01*
X113839238Y-62872952D02*
X113886857Y-62825333D01*
X113982095Y-62777714D01*
X114124952Y-62777714D01*
X114220190Y-62825333D01*
X114267809Y-62920571D01*
X114267809Y-63444380D01*
X114267809Y-62920571D02*
X114315428Y-62825333D01*
X114410666Y-62777714D01*
X114553523Y-62777714D01*
X114648761Y-62825333D01*
X114696380Y-62920571D01*
X114696380Y-63444380D01*
%TO.C,U1*%
X105116380Y-63753904D02*
X105925904Y-63753904D01*
X106021142Y-63706285D01*
X106068761Y-63658666D01*
X106116380Y-63563428D01*
X106116380Y-63372952D01*
X106068761Y-63277714D01*
X106021142Y-63230095D01*
X105925904Y-63182476D01*
X105116380Y-63182476D01*
X106116380Y-62182476D02*
X106116380Y-62753904D01*
X106116380Y-62468190D02*
X105116380Y-62468190D01*
X105259238Y-62563428D01*
X105354476Y-62658666D01*
X105402095Y-62753904D01*
%TO.C,J3*%
X108672380Y-73993333D02*
X109386666Y-73993333D01*
X109529523Y-74040952D01*
X109624761Y-74136190D01*
X109672380Y-74279047D01*
X109672380Y-74374285D01*
X108672380Y-73612380D02*
X108672380Y-72993333D01*
X109053333Y-73326666D01*
X109053333Y-73183809D01*
X109100952Y-73088571D01*
X109148571Y-73040952D01*
X109243809Y-72993333D01*
X109481904Y-72993333D01*
X109577142Y-73040952D01*
X109624761Y-73088571D01*
X109672380Y-73183809D01*
X109672380Y-73469523D01*
X109624761Y-73564761D01*
X109577142Y-73612380D01*
%TO.C,C3*%
X93943739Y-67232390D02*
X93896120Y-67280009D01*
X93753263Y-67327628D01*
X93658025Y-67327628D01*
X93515167Y-67280009D01*
X93419929Y-67184771D01*
X93372310Y-67089533D01*
X93324691Y-66899057D01*
X93324691Y-66756200D01*
X93372310Y-66565724D01*
X93419929Y-66470486D01*
X93515167Y-66375248D01*
X93658025Y-66327628D01*
X93753263Y-66327628D01*
X93896120Y-66375248D01*
X93943739Y-66422867D01*
X94277072Y-66327628D02*
X94896120Y-66327628D01*
X94562786Y-66708581D01*
X94705644Y-66708581D01*
X94800882Y-66756200D01*
X94848501Y-66803819D01*
X94896120Y-66899057D01*
X94896120Y-67137152D01*
X94848501Y-67232390D01*
X94800882Y-67280009D01*
X94705644Y-67327628D01*
X94419929Y-67327628D01*
X94324691Y-67280009D01*
X94277072Y-67232390D01*
%TO.C,C4*%
X104481333Y-70461142D02*
X104433714Y-70508761D01*
X104290857Y-70556380D01*
X104195619Y-70556380D01*
X104052761Y-70508761D01*
X103957523Y-70413523D01*
X103909904Y-70318285D01*
X103862285Y-70127809D01*
X103862285Y-69984952D01*
X103909904Y-69794476D01*
X103957523Y-69699238D01*
X104052761Y-69604000D01*
X104195619Y-69556380D01*
X104290857Y-69556380D01*
X104433714Y-69604000D01*
X104481333Y-69651619D01*
X105338476Y-69889714D02*
X105338476Y-70556380D01*
X105100380Y-69508761D02*
X104862285Y-70223047D01*
X105481333Y-70223047D01*
D12*
%TO.C,U1*%
X104962000Y-63864000D02*
X104962000Y-58564000D01*
X94682000Y-58564000D02*
X94682000Y-60214000D01*
X94682000Y-62214000D02*
X94682000Y-63864000D01*
X104962000Y-58564000D02*
X94682000Y-58564000D01*
X94682000Y-63864000D02*
X104962000Y-63864000D01*
X94682000Y-62214000D02*
G75*
G03*
X94682000Y-60214000I0J1000000D01*
G01*
%TO.C,J1*%
X87829000Y-56074000D02*
X87829000Y-58734000D01*
X91699000Y-56074000D02*
X93029000Y-56074000D01*
X93029000Y-56074000D02*
X93029000Y-57404000D01*
X90429000Y-56074000D02*
X87829000Y-56074000D01*
X90429000Y-58734000D02*
X87829000Y-58734000D01*
X90429000Y-56074000D02*
X90429000Y-58734000D01*
%TO.C,J3*%
X112771000Y-73974000D02*
X115371000Y-73974000D01*
X112771000Y-71314000D02*
X115371000Y-71314000D01*
X110171000Y-73974000D02*
X110171000Y-72644000D01*
X115371000Y-73974000D02*
X115371000Y-71314000D01*
X112771000Y-73974000D02*
X112771000Y-71314000D01*
X111501000Y-73974000D02*
X110171000Y-73974000D01*
%TO.C,RV1*%
X115629000Y-61971000D02*
X105859000Y-61971000D01*
X115629000Y-56901000D02*
X105859000Y-56901000D01*
X115629000Y-56901000D02*
X115629000Y-61971000D01*
X105859000Y-56901000D02*
X105859000Y-61971000D01*
%TO.C,C3*%
X95044000Y-70840000D02*
X95044000Y-69640000D01*
X95044000Y-66320000D02*
X95044000Y-67520000D01*
X99564000Y-67384437D02*
X98499563Y-66320000D01*
X98499563Y-70840000D02*
X95044000Y-70840000D01*
X100054000Y-70390000D02*
X100054000Y-69890000D01*
X99564000Y-69775563D02*
X99564000Y-69640000D01*
X99564000Y-67384437D02*
X99564000Y-67520000D01*
X100304000Y-70140000D02*
X99804000Y-70140000D01*
X99564000Y-69775563D02*
X98499563Y-70840000D01*
X98499563Y-66320000D02*
X95044000Y-66320000D01*
%TO.C,C4*%
X106908000Y-69775563D02*
X106908000Y-69640000D01*
X102388000Y-66320000D02*
X102388000Y-67520000D01*
X107398000Y-70390000D02*
X107398000Y-69890000D01*
X106908000Y-69775563D02*
X105843563Y-70840000D01*
X105843563Y-66320000D02*
X102388000Y-66320000D01*
X106908000Y-67384437D02*
X106908000Y-67520000D01*
X106908000Y-67384437D02*
X105843563Y-66320000D01*
X102388000Y-70840000D02*
X102388000Y-69640000D01*
X105843563Y-70840000D02*
X102388000Y-70840000D01*
X107648000Y-70140000D02*
X107148000Y-70140000D01*
%TO.C,J4*%
X86656000Y-61021000D02*
X86656000Y-68741000D01*
X90766000Y-61021000D02*
X92476000Y-61021000D01*
X92476000Y-63081000D02*
X93066000Y-63081000D01*
X86656000Y-61021000D02*
X88266000Y-61021000D01*
X92476000Y-68741000D02*
X92476000Y-66681000D01*
X92476000Y-61021000D02*
X92476000Y-63081000D01*
X90766000Y-68741000D02*
X92476000Y-68741000D01*
X86656000Y-68741000D02*
X88266000Y-68741000D01*
%TD*%
M02*
