%TF.GenerationSoftware,KiCad,Pcbnew,(6.0.0)*%
%TF.CreationDate,2022-12-01T22:20:14+01:00*%
%TF.ProjectId,current_measurement,63757272-656e-4745-9f6d-656173757265,1.0*%
%TF.SameCoordinates,Original*%
%TF.FileFunction,Copper,L1,Top*%
%TF.FilePolarity,Positive*%
%FSLAX46Y46*%
G04 Gerber Fmt 4.6, Leading zero omitted, Abs format (unit mm)*
G04 Created by KiCad (PCBNEW (6.0.0)) date 2022-12-01 22:20:14*
%MOMM*%
%LPD*%
G01*
G04 APERTURE LIST*
G04 Aperture macros list*
%AMRoundRect*
0 Rectangle with rounded corners*
0 $1 Rounding radius*
0 $2 $3 $4 $5 $6 $7 $8 $9 X,Y pos of 4 corners*
0 Add a 4 corners polygon primitive as box body*
4,1,4,$2,$3,$4,$5,$6,$7,$8,$9,$2,$3,0*
0 Add four circle primitives for the rounded corners*
1,1,$1+$1,$2,$3*
1,1,$1+$1,$4,$5*
1,1,$1+$1,$6,$7*
1,1,$1+$1,$8,$9*
0 Add four rect primitives between the rounded corners*
20,1,$1+$1,$2,$3,$4,$5,0*
20,1,$1+$1,$4,$5,$6,$7,0*
20,1,$1+$1,$6,$7,$8,$9,0*
20,1,$1+$1,$8,$9,$2,$3,0*%
G04 Aperture macros list end*
%TA.AperFunction,ComponentPad*%
%ADD10R,1.600000X1.600000*%
%TD*%
%TA.AperFunction,ComponentPad*%
%ADD11O,1.600000X1.600000*%
%TD*%
%TA.AperFunction,ComponentPad*%
%ADD12R,1.700000X1.700000*%
%TD*%
%TA.AperFunction,ComponentPad*%
%ADD13O,1.700000X1.700000*%
%TD*%
%TA.AperFunction,ComponentPad*%
%ADD14C,1.440000*%
%TD*%
%TA.AperFunction,SMDPad,CuDef*%
%ADD15RoundRect,0.250000X1.050000X0.550000X-1.050000X0.550000X-1.050000X-0.550000X1.050000X-0.550000X0*%
%TD*%
%TA.AperFunction,SMDPad,CuDef*%
%ADD16R,1.400000X0.400000*%
%TD*%
%TA.AperFunction,SMDPad,CuDef*%
%ADD17R,1.900000X1.800000*%
%TD*%
%TA.AperFunction,SMDPad,CuDef*%
%ADD18R,1.900000X2.300000*%
%TD*%
%TA.AperFunction,ViaPad*%
%ADD19C,0.800000*%
%TD*%
%TA.AperFunction,Conductor*%
%ADD20C,0.250000*%
%TD*%
G04 APERTURE END LIST*
D10*
%TO.P,U1,1,C1-*%
%TO.N,Net-(C1-Pad2)*%
X96012000Y-65024000D03*
D11*
%TO.P,U1,2,C2+*%
%TO.N,Net-(C2-Pad1)*%
X98552000Y-65024000D03*
%TO.P,U1,3,C2-*%
%TO.N,Net-(C2-Pad2)*%
X101092000Y-65024000D03*
%TO.P,U1,4,V-*%
%TO.N,-10V*%
X103632000Y-65024000D03*
%TO.P,U1,5,GND*%
%TO.N,GND*%
X103632000Y-57404000D03*
%TO.P,U1,6,VCC*%
%TO.N,+5V*%
X101092000Y-57404000D03*
%TO.P,U1,7,C1+*%
%TO.N,Net-(C1-Pad1)*%
X98552000Y-57404000D03*
%TO.P,U1,8,V+*%
%TO.N,+10V*%
X96012000Y-57404000D03*
%TD*%
D12*
%TO.P,J1,1,Pin_1*%
%TO.N,+5V*%
X91699000Y-57404000D03*
D13*
%TO.P,J1,2,Pin_2*%
%TO.N,GND*%
X89159000Y-57404000D03*
%TD*%
D12*
%TO.P,J3,1,Pin_1*%
%TO.N,GND*%
X111501000Y-72644000D03*
D13*
%TO.P,J3,2,Pin_2*%
%TO.N,Net-(J3-Pad2)*%
X114041000Y-72644000D03*
%TD*%
D14*
%TO.P,RV1,1,1*%
%TO.N,-10V*%
X113284000Y-59436000D03*
%TO.P,RV1,2,2*%
%TO.N,Net-(R3-Pad2)*%
X110744000Y-59436000D03*
%TO.P,RV1,3,3*%
%TO.N,+10V*%
X108204000Y-59436000D03*
%TD*%
D15*
%TO.P,C3,1*%
%TO.N,+10V*%
X99104000Y-68580000D03*
%TO.P,C3,2*%
%TO.N,GND*%
X95504000Y-68580000D03*
%TD*%
%TO.P,C4,1*%
%TO.N,GND*%
X106448000Y-68580000D03*
%TO.P,C4,2*%
%TO.N,-10V*%
X102848000Y-68580000D03*
%TD*%
D16*
%TO.P,J4,1,VBUS*%
%TO.N,+5V*%
X92366000Y-63581000D03*
%TO.P,J4,2,D-*%
%TO.N,unconnected-(J4-Pad2)*%
X92366000Y-64231000D03*
%TO.P,J4,3,D+*%
%TO.N,unconnected-(J4-Pad3)*%
X92366000Y-64881000D03*
%TO.P,J4,4,ID*%
%TO.N,unconnected-(J4-Pad4)*%
X92366000Y-65531000D03*
%TO.P,J4,5,GND*%
%TO.N,GND*%
X92366000Y-66181000D03*
D17*
%TO.P,J4,6,Shield*%
X89516000Y-63731000D03*
D18*
X89516000Y-68631000D03*
D17*
X89516000Y-66031000D03*
D18*
X89516000Y-61131000D03*
%TD*%
D12*
%TO.P,J2,1,Pin_1*%
%TO.N,Net-(J2-Pad1)*%
X102872472Y-72851187D03*
D13*
%TO.P,J2,2,Pin_2*%
%TO.N,Net-(J2-Pad2)*%
X105412472Y-72851187D03*
%TD*%
D19*
%TO.N,GND*%
X107188000Y-65532000D03*
%TO.N,+10V*%
X97536000Y-68580000D03*
%TO.N,-10V*%
X103632000Y-66548000D03*
%TD*%
D20*
%TO.N,+5V*%
X95504000Y-55880000D02*
X100076000Y-55880000D01*
X91699000Y-57404000D02*
X93980000Y-57404000D01*
X100076000Y-55880000D02*
X101092000Y-56896000D01*
X92366000Y-63581000D02*
X92366000Y-58071000D01*
X101092000Y-56896000D02*
X101092000Y-57404000D01*
X93980000Y-57404000D02*
X95504000Y-55880000D01*
X92366000Y-58071000D02*
X91699000Y-57404000D01*
%TO.N,+10V*%
X99104000Y-68580000D02*
X97536000Y-68580000D01*
%TO.N,-10V*%
X102848000Y-67332000D02*
X103632000Y-66548000D01*
X102848000Y-68580000D02*
X102848000Y-67332000D01*
%TD*%
%TA.AperFunction,Conductor*%
%TO.N,GND*%
G36*
X88727401Y-55900002D02*
G01*
X88773894Y-55953658D01*
X88783998Y-56023932D01*
X88754504Y-56088512D01*
X88698425Y-56125765D01*
X88635868Y-56146212D01*
X88626359Y-56150209D01*
X88437463Y-56248542D01*
X88428738Y-56254036D01*
X88258433Y-56381905D01*
X88250726Y-56388748D01*
X88103590Y-56542717D01*
X88097104Y-56550727D01*
X87977098Y-56726649D01*
X87972000Y-56735623D01*
X87882338Y-56928783D01*
X87878775Y-56938470D01*
X87823389Y-57138183D01*
X87824912Y-57146607D01*
X87837292Y-57150000D01*
X89287000Y-57150000D01*
X89355121Y-57170002D01*
X89401614Y-57223658D01*
X89413000Y-57276000D01*
X89413000Y-58722517D01*
X89417064Y-58736359D01*
X89430478Y-58738393D01*
X89437184Y-58737534D01*
X89447262Y-58735392D01*
X89651255Y-58674191D01*
X89660842Y-58670433D01*
X89852095Y-58576739D01*
X89860945Y-58571464D01*
X90034328Y-58447792D01*
X90042193Y-58441145D01*
X90146897Y-58336805D01*
X90209268Y-58302889D01*
X90280075Y-58308077D01*
X90336837Y-58350723D01*
X90353819Y-58381826D01*
X90398385Y-58500705D01*
X90485739Y-58617261D01*
X90602295Y-58704615D01*
X90738684Y-58755745D01*
X90800866Y-58762500D01*
X91606500Y-58762500D01*
X91674621Y-58782502D01*
X91721114Y-58836158D01*
X91732500Y-58888500D01*
X91732500Y-62747116D01*
X91712498Y-62815237D01*
X91658842Y-62861730D01*
X91617793Y-62871826D01*
X91617866Y-62872500D01*
X91555684Y-62879255D01*
X91419295Y-62930385D01*
X91302739Y-63017739D01*
X91297358Y-63024919D01*
X91220771Y-63127109D01*
X91215385Y-63134295D01*
X91212235Y-63142699D01*
X91210518Y-63145834D01*
X91160259Y-63195979D01*
X91090868Y-63210992D01*
X91024376Y-63186106D01*
X90981894Y-63129222D01*
X90973999Y-63085323D01*
X90973999Y-62786331D01*
X90973629Y-62779510D01*
X90968105Y-62728648D01*
X90964478Y-62713394D01*
X90922055Y-62600229D01*
X90916872Y-62529422D01*
X90922055Y-62511771D01*
X90964478Y-62398609D01*
X90968105Y-62383351D01*
X90973631Y-62332486D01*
X90974000Y-62325672D01*
X90974000Y-61403115D01*
X90969525Y-61387876D01*
X90968135Y-61386671D01*
X90960452Y-61385000D01*
X89788115Y-61385000D01*
X89772876Y-61389475D01*
X89771671Y-61390865D01*
X89770000Y-61398548D01*
X89770000Y-68358885D01*
X89774475Y-68374124D01*
X89775865Y-68375329D01*
X89783548Y-68377000D01*
X90955884Y-68377000D01*
X90971123Y-68372525D01*
X90972328Y-68371135D01*
X90973999Y-68363452D01*
X90973999Y-68307885D01*
X93696000Y-68307885D01*
X93700475Y-68323124D01*
X93701865Y-68324329D01*
X93709548Y-68326000D01*
X95231885Y-68326000D01*
X95247124Y-68321525D01*
X95248329Y-68320135D01*
X95250000Y-68312452D01*
X95250000Y-67290116D01*
X95245525Y-67274877D01*
X95244135Y-67273672D01*
X95236452Y-67272001D01*
X94406905Y-67272001D01*
X94400386Y-67272338D01*
X94304794Y-67282257D01*
X94291400Y-67285149D01*
X94137216Y-67336588D01*
X94124038Y-67342761D01*
X93986193Y-67428063D01*
X93974792Y-67437099D01*
X93860261Y-67551829D01*
X93851249Y-67563240D01*
X93766184Y-67701243D01*
X93760037Y-67714424D01*
X93708862Y-67868710D01*
X93705995Y-67882086D01*
X93696328Y-67976438D01*
X93696000Y-67982855D01*
X93696000Y-68307885D01*
X90973999Y-68307885D01*
X90973999Y-67436331D01*
X90973629Y-67429510D01*
X90968105Y-67378648D01*
X90964478Y-67363394D01*
X90922055Y-67250229D01*
X90916872Y-67179422D01*
X90922055Y-67161771D01*
X90964478Y-67048609D01*
X90968105Y-67033351D01*
X90973631Y-66982486D01*
X90974000Y-66975672D01*
X90974000Y-66675626D01*
X90994002Y-66607505D01*
X91047658Y-66561012D01*
X91117932Y-66550908D01*
X91182512Y-66580402D01*
X91210520Y-66615117D01*
X91221212Y-66634646D01*
X91297715Y-66736724D01*
X91310276Y-66749285D01*
X91412351Y-66825786D01*
X91427946Y-66834324D01*
X91548394Y-66879478D01*
X91563649Y-66883105D01*
X91614514Y-66888631D01*
X91621328Y-66889000D01*
X92147885Y-66889000D01*
X92163124Y-66884525D01*
X92164329Y-66883135D01*
X92166000Y-66875452D01*
X92166000Y-66365500D01*
X92186002Y-66297379D01*
X92239658Y-66250886D01*
X92292000Y-66239500D01*
X92443372Y-66239500D01*
X92511493Y-66259502D01*
X92557986Y-66313158D01*
X92568090Y-66383432D01*
X92566492Y-66392285D01*
X92566000Y-66394547D01*
X92566000Y-66870884D01*
X92570475Y-66886123D01*
X92571865Y-66887328D01*
X92579548Y-66888999D01*
X93110669Y-66888999D01*
X93117490Y-66888629D01*
X93168352Y-66883105D01*
X93183604Y-66879479D01*
X93304054Y-66834324D01*
X93319649Y-66825786D01*
X93421724Y-66749285D01*
X93434285Y-66736724D01*
X93510786Y-66634649D01*
X93519324Y-66619054D01*
X93564478Y-66498606D01*
X93568105Y-66483351D01*
X93573631Y-66432486D01*
X93574000Y-66425672D01*
X93574000Y-66399115D01*
X93569525Y-66383876D01*
X93568135Y-66382671D01*
X93560452Y-66381000D01*
X93424884Y-66381000D01*
X93356763Y-66360998D01*
X93310270Y-66307342D01*
X93300166Y-66237068D01*
X93329660Y-66172488D01*
X93349319Y-66154174D01*
X93422081Y-66099642D01*
X93429261Y-66094261D01*
X93477242Y-66030240D01*
X93534101Y-65987725D01*
X93542570Y-65984909D01*
X93571123Y-65976525D01*
X93572328Y-65975135D01*
X93573999Y-65967452D01*
X93573999Y-65936331D01*
X93573629Y-65929510D01*
X93567398Y-65872134D01*
X94703500Y-65872134D01*
X94710255Y-65934316D01*
X94761385Y-66070705D01*
X94848739Y-66187261D01*
X94965295Y-66274615D01*
X95101684Y-66325745D01*
X95163866Y-66332500D01*
X96860134Y-66332500D01*
X96922316Y-66325745D01*
X97058705Y-66274615D01*
X97175261Y-66187261D01*
X97262615Y-66070705D01*
X97313745Y-65934316D01*
X97314917Y-65923526D01*
X97315803Y-65921394D01*
X97316425Y-65918778D01*
X97316848Y-65918879D01*
X97342155Y-65857965D01*
X97400517Y-65817537D01*
X97471471Y-65815078D01*
X97532490Y-65851371D01*
X97539489Y-65860031D01*
X97542643Y-65863789D01*
X97545802Y-65868300D01*
X97707700Y-66030198D01*
X97712208Y-66033355D01*
X97712211Y-66033357D01*
X97753542Y-66062297D01*
X97895251Y-66161523D01*
X97900233Y-66163846D01*
X97900238Y-66163849D01*
X98062474Y-66239500D01*
X98102757Y-66258284D01*
X98108065Y-66259706D01*
X98108067Y-66259707D01*
X98318598Y-66316119D01*
X98318600Y-66316119D01*
X98323913Y-66317543D01*
X98552000Y-66337498D01*
X98780087Y-66317543D01*
X98785400Y-66316119D01*
X98785402Y-66316119D01*
X98995933Y-66259707D01*
X98995935Y-66259706D01*
X99001243Y-66258284D01*
X99041526Y-66239500D01*
X99203762Y-66163849D01*
X99203767Y-66163846D01*
X99208749Y-66161523D01*
X99350458Y-66062297D01*
X99391789Y-66033357D01*
X99391792Y-66033355D01*
X99396300Y-66030198D01*
X99558198Y-65868300D01*
X99577093Y-65841316D01*
X99622127Y-65777000D01*
X99689523Y-65680749D01*
X99691846Y-65675767D01*
X99691849Y-65675762D01*
X99707805Y-65641543D01*
X99754722Y-65588258D01*
X99822999Y-65568797D01*
X99890959Y-65589339D01*
X99936195Y-65641543D01*
X99952151Y-65675762D01*
X99952154Y-65675767D01*
X99954477Y-65680749D01*
X100021873Y-65777000D01*
X100066908Y-65841316D01*
X100085802Y-65868300D01*
X100247700Y-66030198D01*
X100252208Y-66033355D01*
X100252211Y-66033357D01*
X100293542Y-66062297D01*
X100435251Y-66161523D01*
X100440233Y-66163846D01*
X100440238Y-66163849D01*
X100602474Y-66239500D01*
X100642757Y-66258284D01*
X100648065Y-66259706D01*
X100648067Y-66259707D01*
X100858598Y-66316119D01*
X100858600Y-66316119D01*
X100863913Y-66317543D01*
X101092000Y-66337498D01*
X101320087Y-66317543D01*
X101325400Y-66316119D01*
X101325402Y-66316119D01*
X101535933Y-66259707D01*
X101535935Y-66259706D01*
X101541243Y-66258284D01*
X101581526Y-66239500D01*
X101743762Y-66163849D01*
X101743767Y-66163846D01*
X101748749Y-66161523D01*
X101890458Y-66062297D01*
X101931789Y-66033357D01*
X101931792Y-66033355D01*
X101936300Y-66030198D01*
X102098198Y-65868300D01*
X102117093Y-65841316D01*
X102162127Y-65777000D01*
X102229523Y-65680749D01*
X102231846Y-65675767D01*
X102231849Y-65675762D01*
X102247805Y-65641543D01*
X102294722Y-65588258D01*
X102362999Y-65568797D01*
X102430959Y-65589339D01*
X102476195Y-65641543D01*
X102492151Y-65675762D01*
X102492154Y-65675767D01*
X102494477Y-65680749D01*
X102561873Y-65777000D01*
X102606908Y-65841316D01*
X102625802Y-65868300D01*
X102779060Y-66021558D01*
X102813086Y-66083870D01*
X102808021Y-66154685D01*
X102803333Y-66164636D01*
X102803461Y-66164693D01*
X102800777Y-66170721D01*
X102797473Y-66176444D01*
X102738458Y-66358072D01*
X102737768Y-66364633D01*
X102737768Y-66364635D01*
X102735746Y-66383876D01*
X102723688Y-66498606D01*
X102721093Y-66523292D01*
X102694080Y-66588949D01*
X102684878Y-66599217D01*
X102455747Y-66828348D01*
X102447461Y-66835888D01*
X102440982Y-66840000D01*
X102435557Y-66845777D01*
X102394357Y-66889651D01*
X102391602Y-66892493D01*
X102371865Y-66912230D01*
X102369385Y-66915427D01*
X102361682Y-66924447D01*
X102331414Y-66956679D01*
X102327595Y-66963625D01*
X102327593Y-66963628D01*
X102321652Y-66974434D01*
X102310801Y-66990953D01*
X102298386Y-67006959D01*
X102295241Y-67014228D01*
X102295238Y-67014232D01*
X102280826Y-67047537D01*
X102275609Y-67058187D01*
X102254305Y-67096940D01*
X102252334Y-67104615D01*
X102252334Y-67104616D01*
X102249267Y-67116562D01*
X102242863Y-67135266D01*
X102234819Y-67153855D01*
X102233580Y-67161678D01*
X102233577Y-67161688D01*
X102233019Y-67165213D01*
X102231816Y-67167751D01*
X102231366Y-67169299D01*
X102231116Y-67169226D01*
X102202606Y-67229366D01*
X102142337Y-67266891D01*
X102108571Y-67271500D01*
X101747600Y-67271500D01*
X101744354Y-67271837D01*
X101744350Y-67271837D01*
X101648692Y-67281762D01*
X101648688Y-67281763D01*
X101641834Y-67282474D01*
X101635298Y-67284655D01*
X101635296Y-67284655D01*
X101618928Y-67290116D01*
X101474054Y-67338450D01*
X101323652Y-67431522D01*
X101198695Y-67556697D01*
X101194855Y-67562927D01*
X101194854Y-67562928D01*
X101136073Y-67658289D01*
X101105885Y-67707262D01*
X101098473Y-67729608D01*
X101095543Y-67738442D01*
X101055113Y-67796802D01*
X100989549Y-67824040D01*
X100919668Y-67811507D01*
X100867655Y-67763183D01*
X100856427Y-67738654D01*
X100847870Y-67713005D01*
X100847867Y-67712998D01*
X100845550Y-67706054D01*
X100752478Y-67555652D01*
X100627303Y-67430695D01*
X100621072Y-67426854D01*
X100482968Y-67341725D01*
X100482966Y-67341724D01*
X100476738Y-67337885D01*
X100387285Y-67308215D01*
X100315389Y-67284368D01*
X100315387Y-67284368D01*
X100308861Y-67282203D01*
X100302025Y-67281503D01*
X100302022Y-67281502D01*
X100258969Y-67277091D01*
X100204400Y-67271500D01*
X98003600Y-67271500D01*
X98000354Y-67271837D01*
X98000350Y-67271837D01*
X97904692Y-67281762D01*
X97904688Y-67281763D01*
X97897834Y-67282474D01*
X97891298Y-67284655D01*
X97891296Y-67284655D01*
X97874928Y-67290116D01*
X97730054Y-67338450D01*
X97579652Y-67431522D01*
X97454695Y-67556697D01*
X97450855Y-67562927D01*
X97450854Y-67562928D01*
X97410961Y-67627646D01*
X97358188Y-67675140D01*
X97288117Y-67686563D01*
X97222993Y-67658289D01*
X97196557Y-67627834D01*
X97155934Y-67562190D01*
X97146901Y-67550792D01*
X97032171Y-67436261D01*
X97020760Y-67427249D01*
X96882757Y-67342184D01*
X96869576Y-67336037D01*
X96715290Y-67284862D01*
X96701914Y-67281995D01*
X96607562Y-67272328D01*
X96601145Y-67272000D01*
X95776115Y-67272000D01*
X95760876Y-67276475D01*
X95759671Y-67277865D01*
X95758000Y-67285548D01*
X95758000Y-69869884D01*
X95762475Y-69885123D01*
X95763865Y-69886328D01*
X95771548Y-69887999D01*
X96601095Y-69887999D01*
X96607614Y-69887662D01*
X96703206Y-69877743D01*
X96716600Y-69874851D01*
X96870784Y-69823412D01*
X96883962Y-69817239D01*
X97021807Y-69731937D01*
X97033208Y-69722901D01*
X97147739Y-69608171D01*
X97156751Y-69596760D01*
X97196451Y-69532354D01*
X97249223Y-69484861D01*
X97319294Y-69473437D01*
X97384418Y-69501711D01*
X97410854Y-69532166D01*
X97455522Y-69604348D01*
X97580697Y-69729305D01*
X97586927Y-69733145D01*
X97586928Y-69733146D01*
X97724288Y-69817816D01*
X97731262Y-69822115D01*
X97762530Y-69832486D01*
X97892611Y-69875632D01*
X97892613Y-69875632D01*
X97899139Y-69877797D01*
X97905975Y-69878497D01*
X97905978Y-69878498D01*
X97949031Y-69882909D01*
X98003600Y-69888500D01*
X100204400Y-69888500D01*
X100207646Y-69888163D01*
X100207650Y-69888163D01*
X100303308Y-69878238D01*
X100303312Y-69878237D01*
X100310166Y-69877526D01*
X100316702Y-69875345D01*
X100316704Y-69875345D01*
X100465600Y-69825669D01*
X100477946Y-69821550D01*
X100628348Y-69728478D01*
X100753305Y-69603303D01*
X100797039Y-69532354D01*
X100842275Y-69458968D01*
X100842276Y-69458966D01*
X100846115Y-69452738D01*
X100856457Y-69421558D01*
X100896887Y-69363198D01*
X100962451Y-69335960D01*
X101032332Y-69348493D01*
X101084345Y-69396817D01*
X101095573Y-69421346D01*
X101104130Y-69446995D01*
X101104133Y-69447002D01*
X101106450Y-69453946D01*
X101199522Y-69604348D01*
X101324697Y-69729305D01*
X101330927Y-69733145D01*
X101330928Y-69733146D01*
X101468288Y-69817816D01*
X101475262Y-69822115D01*
X101506530Y-69832486D01*
X101636611Y-69875632D01*
X101636613Y-69875632D01*
X101643139Y-69877797D01*
X101649975Y-69878497D01*
X101649978Y-69878498D01*
X101693031Y-69882909D01*
X101747600Y-69888500D01*
X103948400Y-69888500D01*
X103951646Y-69888163D01*
X103951650Y-69888163D01*
X104047308Y-69878238D01*
X104047312Y-69878237D01*
X104054166Y-69877526D01*
X104060702Y-69875345D01*
X104060704Y-69875345D01*
X104209600Y-69825669D01*
X104221946Y-69821550D01*
X104372348Y-69728478D01*
X104497305Y-69603303D01*
X104541040Y-69532352D01*
X104593811Y-69484860D01*
X104663883Y-69473436D01*
X104729006Y-69501710D01*
X104755443Y-69532166D01*
X104796063Y-69597807D01*
X104805099Y-69609208D01*
X104919829Y-69723739D01*
X104931240Y-69732751D01*
X105069243Y-69817816D01*
X105082424Y-69823963D01*
X105236710Y-69875138D01*
X105250086Y-69878005D01*
X105344438Y-69887672D01*
X105350854Y-69888000D01*
X106175885Y-69888000D01*
X106191124Y-69883525D01*
X106192329Y-69882135D01*
X106194000Y-69874452D01*
X106194000Y-69869884D01*
X106702000Y-69869884D01*
X106706475Y-69885123D01*
X106707865Y-69886328D01*
X106715548Y-69887999D01*
X107545095Y-69887999D01*
X107551614Y-69887662D01*
X107647206Y-69877743D01*
X107660600Y-69874851D01*
X107814784Y-69823412D01*
X107827962Y-69817239D01*
X107965807Y-69731937D01*
X107977208Y-69722901D01*
X108091739Y-69608171D01*
X108100751Y-69596760D01*
X108185816Y-69458757D01*
X108191963Y-69445576D01*
X108243138Y-69291290D01*
X108246005Y-69277914D01*
X108255672Y-69183562D01*
X108256000Y-69177145D01*
X108256000Y-68852115D01*
X108251525Y-68836876D01*
X108250135Y-68835671D01*
X108242452Y-68834000D01*
X106720115Y-68834000D01*
X106704876Y-68838475D01*
X106703671Y-68839865D01*
X106702000Y-68847548D01*
X106702000Y-69869884D01*
X106194000Y-69869884D01*
X106194000Y-68307885D01*
X106702000Y-68307885D01*
X106706475Y-68323124D01*
X106707865Y-68324329D01*
X106715548Y-68326000D01*
X108237884Y-68326000D01*
X108253123Y-68321525D01*
X108254328Y-68320135D01*
X108255999Y-68312452D01*
X108255999Y-67982905D01*
X108255662Y-67976386D01*
X108245743Y-67880794D01*
X108242851Y-67867400D01*
X108191412Y-67713216D01*
X108185239Y-67700038D01*
X108099937Y-67562193D01*
X108090901Y-67550792D01*
X107976171Y-67436261D01*
X107964760Y-67427249D01*
X107826757Y-67342184D01*
X107813576Y-67336037D01*
X107659290Y-67284862D01*
X107645914Y-67281995D01*
X107551562Y-67272328D01*
X107545145Y-67272000D01*
X106720115Y-67272000D01*
X106704876Y-67276475D01*
X106703671Y-67277865D01*
X106702000Y-67285548D01*
X106702000Y-68307885D01*
X106194000Y-68307885D01*
X106194000Y-67290116D01*
X106189525Y-67274877D01*
X106188135Y-67273672D01*
X106180452Y-67272001D01*
X105350905Y-67272001D01*
X105344386Y-67272338D01*
X105248794Y-67282257D01*
X105235400Y-67285149D01*
X105081216Y-67336588D01*
X105068038Y-67342761D01*
X104930193Y-67428063D01*
X104918792Y-67437099D01*
X104804261Y-67551829D01*
X104795249Y-67563240D01*
X104755549Y-67627646D01*
X104702777Y-67675139D01*
X104632706Y-67686563D01*
X104567582Y-67658289D01*
X104541145Y-67627833D01*
X104500332Y-67561880D01*
X104496478Y-67555652D01*
X104371303Y-67430695D01*
X104365072Y-67426854D01*
X104299556Y-67386469D01*
X104252062Y-67333696D01*
X104240640Y-67263625D01*
X104272036Y-67194899D01*
X104295087Y-67169299D01*
X104360239Y-67096940D01*
X104366621Y-67089852D01*
X104366622Y-67089851D01*
X104371040Y-67084944D01*
X104445094Y-66956679D01*
X104463223Y-66925279D01*
X104463224Y-66925278D01*
X104466527Y-66919556D01*
X104525542Y-66737928D01*
X104545504Y-66548000D01*
X104528254Y-66383876D01*
X104526232Y-66364635D01*
X104526232Y-66364633D01*
X104525542Y-66358072D01*
X104466527Y-66176444D01*
X104463223Y-66170721D01*
X104460539Y-66164693D01*
X104462525Y-66163809D01*
X104448178Y-66104645D01*
X104471406Y-66037555D01*
X104484940Y-66021558D01*
X104638198Y-65868300D01*
X104657093Y-65841316D01*
X104702127Y-65777000D01*
X104769523Y-65680749D01*
X104771846Y-65675767D01*
X104771849Y-65675762D01*
X104863961Y-65478225D01*
X104863961Y-65478224D01*
X104866284Y-65473243D01*
X104925543Y-65252087D01*
X104945498Y-65024000D01*
X104925543Y-64795913D01*
X104895151Y-64682490D01*
X104867707Y-64580067D01*
X104867706Y-64580065D01*
X104866284Y-64574757D01*
X104857538Y-64556000D01*
X104771849Y-64372238D01*
X104771846Y-64372233D01*
X104769523Y-64367251D01*
X104638198Y-64179700D01*
X104476300Y-64017802D01*
X104471792Y-64014645D01*
X104471789Y-64014643D01*
X104393611Y-63959902D01*
X104288749Y-63886477D01*
X104283767Y-63884154D01*
X104283762Y-63884151D01*
X104086225Y-63792039D01*
X104086224Y-63792039D01*
X104081243Y-63789716D01*
X104075935Y-63788294D01*
X104075933Y-63788293D01*
X103865402Y-63731881D01*
X103865400Y-63731881D01*
X103860087Y-63730457D01*
X103632000Y-63710502D01*
X103403913Y-63730457D01*
X103398600Y-63731881D01*
X103398598Y-63731881D01*
X103188067Y-63788293D01*
X103188065Y-63788294D01*
X103182757Y-63789716D01*
X103177776Y-63792039D01*
X103177775Y-63792039D01*
X102980238Y-63884151D01*
X102980233Y-63884154D01*
X102975251Y-63886477D01*
X102870389Y-63959902D01*
X102792211Y-64014643D01*
X102792208Y-64014645D01*
X102787700Y-64017802D01*
X102625802Y-64179700D01*
X102494477Y-64367251D01*
X102492154Y-64372233D01*
X102492151Y-64372238D01*
X102476195Y-64406457D01*
X102429278Y-64459742D01*
X102361001Y-64479203D01*
X102293041Y-64458661D01*
X102247805Y-64406457D01*
X102231849Y-64372238D01*
X102231846Y-64372233D01*
X102229523Y-64367251D01*
X102098198Y-64179700D01*
X101936300Y-64017802D01*
X101931792Y-64014645D01*
X101931789Y-64014643D01*
X101853611Y-63959902D01*
X101748749Y-63886477D01*
X101743767Y-63884154D01*
X101743762Y-63884151D01*
X101546225Y-63792039D01*
X101546224Y-63792039D01*
X101541243Y-63789716D01*
X101535935Y-63788294D01*
X101535933Y-63788293D01*
X101325402Y-63731881D01*
X101325400Y-63731881D01*
X101320087Y-63730457D01*
X101092000Y-63710502D01*
X100863913Y-63730457D01*
X100858600Y-63731881D01*
X100858598Y-63731881D01*
X100648067Y-63788293D01*
X100648065Y-63788294D01*
X100642757Y-63789716D01*
X100637776Y-63792039D01*
X100637775Y-63792039D01*
X100440238Y-63884151D01*
X100440233Y-63884154D01*
X100435251Y-63886477D01*
X100330389Y-63959902D01*
X100252211Y-64014643D01*
X100252208Y-64014645D01*
X100247700Y-64017802D01*
X100085802Y-64179700D01*
X99954477Y-64367251D01*
X99952154Y-64372233D01*
X99952151Y-64372238D01*
X99936195Y-64406457D01*
X99889278Y-64459742D01*
X99821001Y-64479203D01*
X99753041Y-64458661D01*
X99707805Y-64406457D01*
X99691849Y-64372238D01*
X99691846Y-64372233D01*
X99689523Y-64367251D01*
X99558198Y-64179700D01*
X99396300Y-64017802D01*
X99391792Y-64014645D01*
X99391789Y-64014643D01*
X99313611Y-63959902D01*
X99208749Y-63886477D01*
X99203767Y-63884154D01*
X99203762Y-63884151D01*
X99006225Y-63792039D01*
X99006224Y-63792039D01*
X99001243Y-63789716D01*
X98995935Y-63788294D01*
X98995933Y-63788293D01*
X98785402Y-63731881D01*
X98785400Y-63731881D01*
X98780087Y-63730457D01*
X98552000Y-63710502D01*
X98323913Y-63730457D01*
X98318600Y-63731881D01*
X98318598Y-63731881D01*
X98108067Y-63788293D01*
X98108065Y-63788294D01*
X98102757Y-63789716D01*
X98097776Y-63792039D01*
X98097775Y-63792039D01*
X97900238Y-63884151D01*
X97900233Y-63884154D01*
X97895251Y-63886477D01*
X97790389Y-63959902D01*
X97712211Y-64014643D01*
X97712208Y-64014645D01*
X97707700Y-64017802D01*
X97545802Y-64179700D01*
X97542643Y-64184211D01*
X97539108Y-64188424D01*
X97537974Y-64187473D01*
X97487929Y-64227471D01*
X97417310Y-64234776D01*
X97353951Y-64202742D01*
X97317970Y-64141538D01*
X97314918Y-64124483D01*
X97313745Y-64113684D01*
X97262615Y-63977295D01*
X97175261Y-63860739D01*
X97058705Y-63773385D01*
X96922316Y-63722255D01*
X96860134Y-63715500D01*
X95163866Y-63715500D01*
X95101684Y-63722255D01*
X94965295Y-63773385D01*
X94848739Y-63860739D01*
X94761385Y-63977295D01*
X94710255Y-64113684D01*
X94703500Y-64175866D01*
X94703500Y-65872134D01*
X93567398Y-65872134D01*
X93567252Y-65870793D01*
X93569998Y-65870495D01*
X93569940Y-65841554D01*
X93567745Y-65841316D01*
X93574131Y-65782531D01*
X93574500Y-65779134D01*
X93574500Y-65282866D01*
X93567745Y-65220684D01*
X93570174Y-65220420D01*
X93570174Y-65191580D01*
X93567745Y-65191316D01*
X93574131Y-65132531D01*
X93574500Y-65129134D01*
X93574500Y-64632866D01*
X93567745Y-64570684D01*
X93570174Y-64570420D01*
X93570174Y-64541580D01*
X93567745Y-64541316D01*
X93574131Y-64482531D01*
X93574500Y-64479134D01*
X93574500Y-63982866D01*
X93567745Y-63920684D01*
X93570174Y-63920420D01*
X93570174Y-63891580D01*
X93567745Y-63891316D01*
X93574131Y-63832531D01*
X93574500Y-63829134D01*
X93574500Y-63332866D01*
X93567745Y-63270684D01*
X93516615Y-63134295D01*
X93429261Y-63017739D01*
X93312705Y-62930385D01*
X93176316Y-62879255D01*
X93114134Y-62872500D01*
X93114258Y-62871361D01*
X93051766Y-62849289D01*
X93008232Y-62793206D01*
X92999500Y-62747116D01*
X92999500Y-59436000D01*
X106970807Y-59436000D01*
X106989542Y-59650142D01*
X106990966Y-59655455D01*
X106990966Y-59655457D01*
X107032924Y-59812043D01*
X107045178Y-59857777D01*
X107047500Y-59862757D01*
X107047501Y-59862759D01*
X107078630Y-59929514D01*
X107136024Y-60052596D01*
X107259319Y-60228681D01*
X107411319Y-60380681D01*
X107587403Y-60503976D01*
X107592381Y-60506297D01*
X107592384Y-60506299D01*
X107777241Y-60592499D01*
X107782223Y-60594822D01*
X107787531Y-60596244D01*
X107787533Y-60596245D01*
X107984543Y-60649034D01*
X107984545Y-60649034D01*
X107989858Y-60650458D01*
X108204000Y-60669193D01*
X108418142Y-60650458D01*
X108423455Y-60649034D01*
X108423457Y-60649034D01*
X108620467Y-60596245D01*
X108620469Y-60596244D01*
X108625777Y-60594822D01*
X108630759Y-60592499D01*
X108815616Y-60506299D01*
X108815619Y-60506297D01*
X108820597Y-60503976D01*
X108996681Y-60380681D01*
X109148681Y-60228681D01*
X109271976Y-60052596D01*
X109359805Y-59864247D01*
X109406723Y-59810962D01*
X109475000Y-59791501D01*
X109542960Y-59812043D01*
X109588195Y-59864247D01*
X109676024Y-60052596D01*
X109799319Y-60228681D01*
X109951319Y-60380681D01*
X110127403Y-60503976D01*
X110132381Y-60506297D01*
X110132384Y-60506299D01*
X110317241Y-60592499D01*
X110322223Y-60594822D01*
X110327531Y-60596244D01*
X110327533Y-60596245D01*
X110524543Y-60649034D01*
X110524545Y-60649034D01*
X110529858Y-60650458D01*
X110744000Y-60669193D01*
X110958142Y-60650458D01*
X110963455Y-60649034D01*
X110963457Y-60649034D01*
X111160467Y-60596245D01*
X111160469Y-60596244D01*
X111165777Y-60594822D01*
X111170759Y-60592499D01*
X111355616Y-60506299D01*
X111355619Y-60506297D01*
X111360597Y-60503976D01*
X111536681Y-60380681D01*
X111688681Y-60228681D01*
X111811976Y-60052596D01*
X111899805Y-59864247D01*
X111946723Y-59810962D01*
X112015000Y-59791501D01*
X112082960Y-59812043D01*
X112128195Y-59864247D01*
X112216024Y-60052596D01*
X112339319Y-60228681D01*
X112491319Y-60380681D01*
X112667403Y-60503976D01*
X112672381Y-60506297D01*
X112672384Y-60506299D01*
X112857241Y-60592499D01*
X112862223Y-60594822D01*
X112867531Y-60596244D01*
X112867533Y-60596245D01*
X113064543Y-60649034D01*
X113064545Y-60649034D01*
X113069858Y-60650458D01*
X113284000Y-60669193D01*
X113498142Y-60650458D01*
X113503455Y-60649034D01*
X113503457Y-60649034D01*
X113700467Y-60596245D01*
X113700469Y-60596244D01*
X113705777Y-60594822D01*
X113710759Y-60592499D01*
X113895616Y-60506299D01*
X113895619Y-60506297D01*
X113900597Y-60503976D01*
X114076681Y-60380681D01*
X114228681Y-60228681D01*
X114351976Y-60052596D01*
X114409371Y-59929514D01*
X114440499Y-59862759D01*
X114440500Y-59862757D01*
X114442822Y-59857777D01*
X114455077Y-59812043D01*
X114497034Y-59655457D01*
X114497034Y-59655455D01*
X114498458Y-59650142D01*
X114517193Y-59436000D01*
X114498458Y-59221858D01*
X114455366Y-59061038D01*
X114444245Y-59019533D01*
X114444244Y-59019531D01*
X114442822Y-59014223D01*
X114351976Y-58819404D01*
X114228681Y-58643319D01*
X114076681Y-58491319D01*
X113900597Y-58368024D01*
X113895619Y-58365703D01*
X113895616Y-58365701D01*
X113710759Y-58279501D01*
X113710758Y-58279500D01*
X113705777Y-58277178D01*
X113700469Y-58275756D01*
X113700467Y-58275755D01*
X113503457Y-58222966D01*
X113503455Y-58222966D01*
X113498142Y-58221542D01*
X113284000Y-58202807D01*
X113069858Y-58221542D01*
X113064545Y-58222966D01*
X113064543Y-58222966D01*
X112867533Y-58275755D01*
X112867531Y-58275756D01*
X112862223Y-58277178D01*
X112857243Y-58279500D01*
X112857241Y-58279501D01*
X112672385Y-58365701D01*
X112672382Y-58365703D01*
X112667404Y-58368024D01*
X112491319Y-58491319D01*
X112339319Y-58643319D01*
X112216024Y-58819404D01*
X112213703Y-58824382D01*
X112213701Y-58824385D01*
X112128195Y-59007753D01*
X112081277Y-59061038D01*
X112013000Y-59080499D01*
X111945040Y-59059957D01*
X111899805Y-59007753D01*
X111814299Y-58824385D01*
X111814297Y-58824382D01*
X111811976Y-58819404D01*
X111688681Y-58643319D01*
X111536681Y-58491319D01*
X111360597Y-58368024D01*
X111355619Y-58365703D01*
X111355616Y-58365701D01*
X111170759Y-58279501D01*
X111170758Y-58279500D01*
X111165777Y-58277178D01*
X111160469Y-58275756D01*
X111160467Y-58275755D01*
X110963457Y-58222966D01*
X110963455Y-58222966D01*
X110958142Y-58221542D01*
X110744000Y-58202807D01*
X110529858Y-58221542D01*
X110524545Y-58222966D01*
X110524543Y-58222966D01*
X110327533Y-58275755D01*
X110327531Y-58275756D01*
X110322223Y-58277178D01*
X110317243Y-58279500D01*
X110317241Y-58279501D01*
X110132385Y-58365701D01*
X110132382Y-58365703D01*
X110127404Y-58368024D01*
X109951319Y-58491319D01*
X109799319Y-58643319D01*
X109676024Y-58819404D01*
X109673703Y-58824382D01*
X109673701Y-58824385D01*
X109588195Y-59007753D01*
X109541277Y-59061038D01*
X109473000Y-59080499D01*
X109405040Y-59059957D01*
X109359805Y-59007753D01*
X109274299Y-58824385D01*
X109274297Y-58824382D01*
X109271976Y-58819404D01*
X109148681Y-58643319D01*
X108996681Y-58491319D01*
X108820597Y-58368024D01*
X108815619Y-58365703D01*
X108815616Y-58365701D01*
X108630759Y-58279501D01*
X108630758Y-58279500D01*
X108625777Y-58277178D01*
X108620469Y-58275756D01*
X108620467Y-58275755D01*
X108423457Y-58222966D01*
X108423455Y-58222966D01*
X108418142Y-58221542D01*
X108204000Y-58202807D01*
X107989858Y-58221542D01*
X107984545Y-58222966D01*
X107984543Y-58222966D01*
X107787533Y-58275755D01*
X107787531Y-58275756D01*
X107782223Y-58277178D01*
X107777243Y-58279500D01*
X107777241Y-58279501D01*
X107592385Y-58365701D01*
X107592382Y-58365703D01*
X107587404Y-58368024D01*
X107411319Y-58491319D01*
X107259319Y-58643319D01*
X107136024Y-58819404D01*
X107045178Y-59014223D01*
X107043756Y-59019531D01*
X107043755Y-59019533D01*
X107032634Y-59061038D01*
X106989542Y-59221858D01*
X106970807Y-59436000D01*
X92999500Y-59436000D01*
X92999500Y-58523854D01*
X93007518Y-58479625D01*
X93047971Y-58371718D01*
X93047973Y-58371712D01*
X93050745Y-58364316D01*
X93057500Y-58302134D01*
X93057500Y-58163500D01*
X93077502Y-58095379D01*
X93131158Y-58048886D01*
X93183500Y-58037500D01*
X93901233Y-58037500D01*
X93912416Y-58038027D01*
X93919909Y-58039702D01*
X93927835Y-58039453D01*
X93927836Y-58039453D01*
X93987986Y-58037562D01*
X93991945Y-58037500D01*
X94019856Y-58037500D01*
X94023791Y-58037003D01*
X94023856Y-58036995D01*
X94035693Y-58036062D01*
X94067951Y-58035048D01*
X94071970Y-58034922D01*
X94079889Y-58034673D01*
X94099343Y-58029021D01*
X94118700Y-58025013D01*
X94130930Y-58023468D01*
X94130931Y-58023468D01*
X94138797Y-58022474D01*
X94146168Y-58019555D01*
X94146170Y-58019555D01*
X94179912Y-58006196D01*
X94191142Y-58002351D01*
X94225983Y-57992229D01*
X94225984Y-57992229D01*
X94233593Y-57990018D01*
X94240412Y-57985985D01*
X94240417Y-57985983D01*
X94251028Y-57979707D01*
X94268776Y-57971012D01*
X94287617Y-57963552D01*
X94323387Y-57937564D01*
X94333307Y-57931048D01*
X94364535Y-57912580D01*
X94364538Y-57912578D01*
X94371362Y-57908542D01*
X94385683Y-57894221D01*
X94400717Y-57881380D01*
X94410694Y-57874131D01*
X94417107Y-57869472D01*
X94445298Y-57835395D01*
X94453288Y-57826616D01*
X94549211Y-57730693D01*
X94611523Y-57696667D01*
X94682338Y-57701732D01*
X94739174Y-57744279D01*
X94760012Y-57787176D01*
X94776290Y-57847925D01*
X94776294Y-57847936D01*
X94777716Y-57853243D01*
X94780039Y-57858224D01*
X94780039Y-57858225D01*
X94872151Y-58055762D01*
X94872154Y-58055767D01*
X94874477Y-58060749D01*
X95005802Y-58248300D01*
X95167700Y-58410198D01*
X95172208Y-58413355D01*
X95172211Y-58413357D01*
X95250389Y-58468098D01*
X95355251Y-58541523D01*
X95360233Y-58543846D01*
X95360238Y-58543849D01*
X95529212Y-58622642D01*
X95562757Y-58638284D01*
X95568065Y-58639706D01*
X95568067Y-58639707D01*
X95778598Y-58696119D01*
X95778600Y-58696119D01*
X95783913Y-58697543D01*
X96012000Y-58717498D01*
X96240087Y-58697543D01*
X96245400Y-58696119D01*
X96245402Y-58696119D01*
X96455933Y-58639707D01*
X96455935Y-58639706D01*
X96461243Y-58638284D01*
X96494788Y-58622642D01*
X96663762Y-58543849D01*
X96663767Y-58543846D01*
X96668749Y-58541523D01*
X96773611Y-58468098D01*
X96851789Y-58413357D01*
X96851792Y-58413355D01*
X96856300Y-58410198D01*
X97018198Y-58248300D01*
X97149523Y-58060749D01*
X97151846Y-58055767D01*
X97151849Y-58055762D01*
X97167805Y-58021543D01*
X97214722Y-57968258D01*
X97282999Y-57948797D01*
X97350959Y-57969339D01*
X97396195Y-58021543D01*
X97412151Y-58055762D01*
X97412154Y-58055767D01*
X97414477Y-58060749D01*
X97545802Y-58248300D01*
X97707700Y-58410198D01*
X97712208Y-58413355D01*
X97712211Y-58413357D01*
X97790389Y-58468098D01*
X97895251Y-58541523D01*
X97900233Y-58543846D01*
X97900238Y-58543849D01*
X98069212Y-58622642D01*
X98102757Y-58638284D01*
X98108065Y-58639706D01*
X98108067Y-58639707D01*
X98318598Y-58696119D01*
X98318600Y-58696119D01*
X98323913Y-58697543D01*
X98552000Y-58717498D01*
X98780087Y-58697543D01*
X98785400Y-58696119D01*
X98785402Y-58696119D01*
X98995933Y-58639707D01*
X98995935Y-58639706D01*
X99001243Y-58638284D01*
X99034788Y-58622642D01*
X99203762Y-58543849D01*
X99203767Y-58543846D01*
X99208749Y-58541523D01*
X99313611Y-58468098D01*
X99391789Y-58413357D01*
X99391792Y-58413355D01*
X99396300Y-58410198D01*
X99558198Y-58248300D01*
X99689523Y-58060749D01*
X99691846Y-58055767D01*
X99691849Y-58055762D01*
X99707805Y-58021543D01*
X99754722Y-57968258D01*
X99822999Y-57948797D01*
X99890959Y-57969339D01*
X99936195Y-58021543D01*
X99952151Y-58055762D01*
X99952154Y-58055767D01*
X99954477Y-58060749D01*
X100085802Y-58248300D01*
X100247700Y-58410198D01*
X100252208Y-58413355D01*
X100252211Y-58413357D01*
X100330389Y-58468098D01*
X100435251Y-58541523D01*
X100440233Y-58543846D01*
X100440238Y-58543849D01*
X100609212Y-58622642D01*
X100642757Y-58638284D01*
X100648065Y-58639706D01*
X100648067Y-58639707D01*
X100858598Y-58696119D01*
X100858600Y-58696119D01*
X100863913Y-58697543D01*
X101092000Y-58717498D01*
X101320087Y-58697543D01*
X101325400Y-58696119D01*
X101325402Y-58696119D01*
X101535933Y-58639707D01*
X101535935Y-58639706D01*
X101541243Y-58638284D01*
X101574788Y-58622642D01*
X101743762Y-58543849D01*
X101743767Y-58543846D01*
X101748749Y-58541523D01*
X101853611Y-58468098D01*
X101931789Y-58413357D01*
X101931792Y-58413355D01*
X101936300Y-58410198D01*
X102098198Y-58248300D01*
X102229523Y-58060749D01*
X102231846Y-58055767D01*
X102231849Y-58055762D01*
X102248081Y-58020951D01*
X102294998Y-57967666D01*
X102363275Y-57948205D01*
X102431235Y-57968747D01*
X102476471Y-58020951D01*
X102492586Y-58055511D01*
X102498069Y-58065007D01*
X102623028Y-58243467D01*
X102630084Y-58251875D01*
X102784125Y-58405916D01*
X102792533Y-58412972D01*
X102970993Y-58537931D01*
X102980489Y-58543414D01*
X103177947Y-58635490D01*
X103188239Y-58639236D01*
X103360503Y-58685394D01*
X103374599Y-58685058D01*
X103378000Y-58677116D01*
X103378000Y-58671967D01*
X103886000Y-58671967D01*
X103889973Y-58685498D01*
X103898522Y-58686727D01*
X104075761Y-58639236D01*
X104086053Y-58635490D01*
X104283511Y-58543414D01*
X104293007Y-58537931D01*
X104471467Y-58412972D01*
X104479875Y-58405916D01*
X104633916Y-58251875D01*
X104640972Y-58243467D01*
X104765931Y-58065007D01*
X104771414Y-58055511D01*
X104863490Y-57858053D01*
X104867236Y-57847761D01*
X104913394Y-57675497D01*
X104913058Y-57661401D01*
X104905116Y-57658000D01*
X103904115Y-57658000D01*
X103888876Y-57662475D01*
X103887671Y-57663865D01*
X103886000Y-57671548D01*
X103886000Y-58671967D01*
X103378000Y-58671967D01*
X103378000Y-57276000D01*
X103398002Y-57207879D01*
X103451658Y-57161386D01*
X103504000Y-57150000D01*
X104899967Y-57150000D01*
X104913498Y-57146027D01*
X104914727Y-57137478D01*
X104867236Y-56960239D01*
X104863490Y-56949947D01*
X104771414Y-56752489D01*
X104765931Y-56742993D01*
X104640972Y-56564533D01*
X104633916Y-56556125D01*
X104479875Y-56402084D01*
X104471467Y-56395028D01*
X104293007Y-56270069D01*
X104283511Y-56264586D01*
X104086053Y-56172510D01*
X104075761Y-56168764D01*
X103922533Y-56127707D01*
X103861910Y-56090755D01*
X103830889Y-56026895D01*
X103839317Y-55956400D01*
X103884520Y-55901653D01*
X103955144Y-55880000D01*
X115698000Y-55880000D01*
X115766121Y-55900002D01*
X115812614Y-55953658D01*
X115824000Y-56006000D01*
X115824000Y-74042000D01*
X115803998Y-74110121D01*
X115750342Y-74156614D01*
X115698000Y-74168000D01*
X114547460Y-74168000D01*
X114479339Y-74147998D01*
X114432846Y-74094342D01*
X114422742Y-74024068D01*
X114452236Y-73959488D01*
X114511253Y-73921314D01*
X114533425Y-73914662D01*
X114533427Y-73914661D01*
X114538384Y-73913174D01*
X114738994Y-73814896D01*
X114920860Y-73685173D01*
X115079096Y-73527489D01*
X115209453Y-73346077D01*
X115308430Y-73145811D01*
X115373370Y-72932069D01*
X115402529Y-72710590D01*
X115404156Y-72644000D01*
X115385852Y-72421361D01*
X115331431Y-72204702D01*
X115242354Y-71999840D01*
X115160576Y-71873430D01*
X115123822Y-71816617D01*
X115123820Y-71816614D01*
X115121014Y-71812277D01*
X114970670Y-71647051D01*
X114966619Y-71643852D01*
X114966615Y-71643848D01*
X114799414Y-71511800D01*
X114799410Y-71511798D01*
X114795359Y-71508598D01*
X114769062Y-71494081D01*
X114667970Y-71438276D01*
X114599789Y-71400638D01*
X114594920Y-71398914D01*
X114594916Y-71398912D01*
X114394087Y-71327795D01*
X114394083Y-71327794D01*
X114389212Y-71326069D01*
X114384119Y-71325162D01*
X114384116Y-71325161D01*
X114174373Y-71287800D01*
X114174367Y-71287799D01*
X114169284Y-71286894D01*
X114095452Y-71285992D01*
X113951081Y-71284228D01*
X113951079Y-71284228D01*
X113945911Y-71284165D01*
X113725091Y-71317955D01*
X113512756Y-71387357D01*
X113314607Y-71490507D01*
X113310474Y-71493610D01*
X113310471Y-71493612D01*
X113155025Y-71610324D01*
X113135965Y-71624635D01*
X113132393Y-71628373D01*
X113054898Y-71709466D01*
X112993374Y-71744895D01*
X112922462Y-71741438D01*
X112864676Y-71700192D01*
X112845823Y-71666644D01*
X112804324Y-71555946D01*
X112795786Y-71540351D01*
X112719285Y-71438276D01*
X112706724Y-71425715D01*
X112604649Y-71349214D01*
X112589054Y-71340676D01*
X112468606Y-71295522D01*
X112453351Y-71291895D01*
X112402486Y-71286369D01*
X112395672Y-71286000D01*
X111773115Y-71286000D01*
X111757876Y-71290475D01*
X111756671Y-71291865D01*
X111755000Y-71299548D01*
X111755000Y-72772000D01*
X111734998Y-72840121D01*
X111681342Y-72886614D01*
X111629000Y-72898000D01*
X110161116Y-72898000D01*
X110145877Y-72902475D01*
X110144672Y-72903865D01*
X110143001Y-72911548D01*
X110143001Y-73538669D01*
X110143371Y-73545490D01*
X110148895Y-73596352D01*
X110152521Y-73611604D01*
X110197676Y-73732054D01*
X110206214Y-73747649D01*
X110282715Y-73849724D01*
X110295276Y-73862285D01*
X110400538Y-73941174D01*
X110443053Y-73998033D01*
X110448079Y-74068851D01*
X110414019Y-74131145D01*
X110351688Y-74165135D01*
X110324973Y-74168000D01*
X106299523Y-74168000D01*
X106231402Y-74147998D01*
X106184909Y-74094342D01*
X106174805Y-74024068D01*
X106204299Y-73959488D01*
X106226352Y-73939423D01*
X106292332Y-73892360D01*
X106450568Y-73734676D01*
X106580925Y-73553264D01*
X106588139Y-73538669D01*
X106677608Y-73357640D01*
X106677609Y-73357638D01*
X106679902Y-73352998D01*
X106741440Y-73150453D01*
X106743337Y-73144210D01*
X106743337Y-73144208D01*
X106744842Y-73139256D01*
X106774001Y-72917777D01*
X106774484Y-72898000D01*
X106775546Y-72854552D01*
X106775546Y-72854548D01*
X106775628Y-72851187D01*
X106757324Y-72628548D01*
X106702903Y-72411889D01*
X106685509Y-72371885D01*
X110143000Y-72371885D01*
X110147475Y-72387124D01*
X110148865Y-72388329D01*
X110156548Y-72390000D01*
X111228885Y-72390000D01*
X111244124Y-72385525D01*
X111245329Y-72384135D01*
X111247000Y-72376452D01*
X111247000Y-71304116D01*
X111242525Y-71288877D01*
X111241135Y-71287672D01*
X111233452Y-71286001D01*
X110606331Y-71286001D01*
X110599510Y-71286371D01*
X110548648Y-71291895D01*
X110533396Y-71295521D01*
X110412946Y-71340676D01*
X110397351Y-71349214D01*
X110295276Y-71425715D01*
X110282715Y-71438276D01*
X110206214Y-71540351D01*
X110197676Y-71555946D01*
X110152522Y-71676394D01*
X110148895Y-71691649D01*
X110143369Y-71742514D01*
X110143000Y-71749328D01*
X110143000Y-72371885D01*
X106685509Y-72371885D01*
X106613826Y-72207027D01*
X106492486Y-72019464D01*
X106342142Y-71854238D01*
X106338091Y-71851039D01*
X106338087Y-71851035D01*
X106170886Y-71718987D01*
X106170882Y-71718985D01*
X106166831Y-71715785D01*
X105971261Y-71607825D01*
X105966392Y-71606101D01*
X105966388Y-71606099D01*
X105765559Y-71534982D01*
X105765555Y-71534981D01*
X105760684Y-71533256D01*
X105755591Y-71532349D01*
X105755588Y-71532348D01*
X105545845Y-71494987D01*
X105545839Y-71494986D01*
X105540756Y-71494081D01*
X105466924Y-71493179D01*
X105322553Y-71491415D01*
X105322551Y-71491415D01*
X105317383Y-71491352D01*
X105096563Y-71525142D01*
X104884228Y-71594544D01*
X104686079Y-71697694D01*
X104681946Y-71700797D01*
X104681943Y-71700799D01*
X104527688Y-71816617D01*
X104507437Y-71831822D01*
X104451009Y-71890871D01*
X104426755Y-71916251D01*
X104365231Y-71951681D01*
X104294318Y-71948224D01*
X104236532Y-71906978D01*
X104217679Y-71873430D01*
X104176239Y-71762890D01*
X104173087Y-71754482D01*
X104085733Y-71637926D01*
X103969177Y-71550572D01*
X103832788Y-71499442D01*
X103770606Y-71492687D01*
X101974338Y-71492687D01*
X101912156Y-71499442D01*
X101775767Y-71550572D01*
X101659211Y-71637926D01*
X101571857Y-71754482D01*
X101520727Y-71890871D01*
X101513972Y-71953053D01*
X101513972Y-73749321D01*
X101520727Y-73811503D01*
X101571857Y-73947892D01*
X101577240Y-73955075D01*
X101577242Y-73955078D01*
X101585755Y-73966436D01*
X101610602Y-74032942D01*
X101595549Y-74102325D01*
X101545374Y-74152554D01*
X101484928Y-74168000D01*
X86994000Y-74168000D01*
X86925879Y-74147998D01*
X86879386Y-74094342D01*
X86868000Y-74042000D01*
X86868000Y-69825669D01*
X88058001Y-69825669D01*
X88058371Y-69832490D01*
X88063895Y-69883352D01*
X88067521Y-69898604D01*
X88112676Y-70019054D01*
X88121214Y-70034649D01*
X88197715Y-70136724D01*
X88210276Y-70149285D01*
X88312351Y-70225786D01*
X88327946Y-70234324D01*
X88448394Y-70279478D01*
X88463649Y-70283105D01*
X88514514Y-70288631D01*
X88521328Y-70289000D01*
X89243885Y-70289000D01*
X89259124Y-70284525D01*
X89260329Y-70283135D01*
X89262000Y-70275452D01*
X89262000Y-70270884D01*
X89770000Y-70270884D01*
X89774475Y-70286123D01*
X89775865Y-70287328D01*
X89783548Y-70288999D01*
X90510669Y-70288999D01*
X90517490Y-70288629D01*
X90568352Y-70283105D01*
X90583604Y-70279479D01*
X90704054Y-70234324D01*
X90719649Y-70225786D01*
X90821724Y-70149285D01*
X90834285Y-70136724D01*
X90910786Y-70034649D01*
X90919324Y-70019054D01*
X90964478Y-69898606D01*
X90968105Y-69883351D01*
X90973631Y-69832486D01*
X90974000Y-69825672D01*
X90974000Y-69177095D01*
X93696001Y-69177095D01*
X93696338Y-69183614D01*
X93706257Y-69279206D01*
X93709149Y-69292600D01*
X93760588Y-69446784D01*
X93766761Y-69459962D01*
X93852063Y-69597807D01*
X93861099Y-69609208D01*
X93975829Y-69723739D01*
X93987240Y-69732751D01*
X94125243Y-69817816D01*
X94138424Y-69823963D01*
X94292710Y-69875138D01*
X94306086Y-69878005D01*
X94400438Y-69887672D01*
X94406854Y-69888000D01*
X95231885Y-69888000D01*
X95247124Y-69883525D01*
X95248329Y-69882135D01*
X95250000Y-69874452D01*
X95250000Y-68852115D01*
X95245525Y-68836876D01*
X95244135Y-68835671D01*
X95236452Y-68834000D01*
X93714116Y-68834000D01*
X93698877Y-68838475D01*
X93697672Y-68839865D01*
X93696001Y-68847548D01*
X93696001Y-69177095D01*
X90974000Y-69177095D01*
X90974000Y-68903115D01*
X90969525Y-68887876D01*
X90968135Y-68886671D01*
X90960452Y-68885000D01*
X89788115Y-68885000D01*
X89772876Y-68889475D01*
X89771671Y-68890865D01*
X89770000Y-68898548D01*
X89770000Y-70270884D01*
X89262000Y-70270884D01*
X89262000Y-68903115D01*
X89257525Y-68887876D01*
X89256135Y-68886671D01*
X89248452Y-68885000D01*
X88076116Y-68885000D01*
X88060877Y-68889475D01*
X88059672Y-68890865D01*
X88058001Y-68898548D01*
X88058001Y-69825669D01*
X86868000Y-69825669D01*
X86868000Y-68358885D01*
X88058000Y-68358885D01*
X88062475Y-68374124D01*
X88063865Y-68375329D01*
X88071548Y-68377000D01*
X89243885Y-68377000D01*
X89259124Y-68372525D01*
X89260329Y-68371135D01*
X89262000Y-68363452D01*
X89262000Y-66303115D01*
X89257525Y-66287876D01*
X89256135Y-66286671D01*
X89248452Y-66285000D01*
X88076116Y-66285000D01*
X88060877Y-66289475D01*
X88059672Y-66290865D01*
X88058001Y-66298548D01*
X88058001Y-66975669D01*
X88058371Y-66982490D01*
X88063895Y-67033352D01*
X88067522Y-67048606D01*
X88109945Y-67161771D01*
X88115128Y-67232578D01*
X88109945Y-67250229D01*
X88067522Y-67363391D01*
X88063895Y-67378649D01*
X88058369Y-67429514D01*
X88058000Y-67436328D01*
X88058000Y-68358885D01*
X86868000Y-68358885D01*
X86868000Y-65758885D01*
X88058000Y-65758885D01*
X88062475Y-65774124D01*
X88063865Y-65775329D01*
X88071548Y-65777000D01*
X89243885Y-65777000D01*
X89259124Y-65772525D01*
X89260329Y-65771135D01*
X89262000Y-65763452D01*
X89262000Y-64003115D01*
X89257525Y-63987876D01*
X89256135Y-63986671D01*
X89248452Y-63985000D01*
X88076116Y-63985000D01*
X88060877Y-63989475D01*
X88059672Y-63990865D01*
X88058001Y-63998548D01*
X88058001Y-64675669D01*
X88058371Y-64682490D01*
X88063895Y-64733352D01*
X88067521Y-64748604D01*
X88100573Y-64836770D01*
X88105756Y-64907578D01*
X88100573Y-64925230D01*
X88067522Y-65013394D01*
X88063895Y-65028649D01*
X88058369Y-65079514D01*
X88058000Y-65086328D01*
X88058000Y-65758885D01*
X86868000Y-65758885D01*
X86868000Y-63458885D01*
X88058000Y-63458885D01*
X88062475Y-63474124D01*
X88063865Y-63475329D01*
X88071548Y-63477000D01*
X89243885Y-63477000D01*
X89259124Y-63472525D01*
X89260329Y-63471135D01*
X89262000Y-63463452D01*
X89262000Y-61403115D01*
X89257525Y-61387876D01*
X89256135Y-61386671D01*
X89248452Y-61385000D01*
X88076116Y-61385000D01*
X88060877Y-61389475D01*
X88059672Y-61390865D01*
X88058001Y-61398548D01*
X88058001Y-62325669D01*
X88058371Y-62332490D01*
X88063895Y-62383352D01*
X88067522Y-62398606D01*
X88109945Y-62511771D01*
X88115128Y-62582578D01*
X88109945Y-62600229D01*
X88067522Y-62713391D01*
X88063895Y-62728649D01*
X88058369Y-62779514D01*
X88058000Y-62786328D01*
X88058000Y-63458885D01*
X86868000Y-63458885D01*
X86868000Y-60858885D01*
X88058000Y-60858885D01*
X88062475Y-60874124D01*
X88063865Y-60875329D01*
X88071548Y-60877000D01*
X89243885Y-60877000D01*
X89259124Y-60872525D01*
X89260329Y-60871135D01*
X89262000Y-60863452D01*
X89262000Y-60858885D01*
X89770000Y-60858885D01*
X89774475Y-60874124D01*
X89775865Y-60875329D01*
X89783548Y-60877000D01*
X90955884Y-60877000D01*
X90971123Y-60872525D01*
X90972328Y-60871135D01*
X90973999Y-60863452D01*
X90973999Y-59936331D01*
X90973629Y-59929510D01*
X90968105Y-59878648D01*
X90964479Y-59863396D01*
X90919324Y-59742946D01*
X90910786Y-59727351D01*
X90834285Y-59625276D01*
X90821724Y-59612715D01*
X90719649Y-59536214D01*
X90704054Y-59527676D01*
X90583606Y-59482522D01*
X90568351Y-59478895D01*
X90517486Y-59473369D01*
X90510672Y-59473000D01*
X89788115Y-59473000D01*
X89772876Y-59477475D01*
X89771671Y-59478865D01*
X89770000Y-59486548D01*
X89770000Y-60858885D01*
X89262000Y-60858885D01*
X89262000Y-59491116D01*
X89257525Y-59475877D01*
X89256135Y-59474672D01*
X89248452Y-59473001D01*
X88521331Y-59473001D01*
X88514510Y-59473371D01*
X88463648Y-59478895D01*
X88448396Y-59482521D01*
X88327946Y-59527676D01*
X88312351Y-59536214D01*
X88210276Y-59612715D01*
X88197715Y-59625276D01*
X88121214Y-59727351D01*
X88112676Y-59742946D01*
X88067522Y-59863394D01*
X88063895Y-59878649D01*
X88058369Y-59929514D01*
X88058000Y-59936328D01*
X88058000Y-60858885D01*
X86868000Y-60858885D01*
X86868000Y-57671966D01*
X87827257Y-57671966D01*
X87857565Y-57806446D01*
X87860645Y-57816275D01*
X87940770Y-58013603D01*
X87945413Y-58022794D01*
X88056694Y-58204388D01*
X88062777Y-58212699D01*
X88202213Y-58373667D01*
X88209580Y-58380883D01*
X88373434Y-58516916D01*
X88381881Y-58522831D01*
X88565756Y-58630279D01*
X88575042Y-58634729D01*
X88774001Y-58710703D01*
X88783899Y-58713579D01*
X88887250Y-58734606D01*
X88901299Y-58733410D01*
X88905000Y-58723065D01*
X88905000Y-57676115D01*
X88900525Y-57660876D01*
X88899135Y-57659671D01*
X88891452Y-57658000D01*
X87842225Y-57658000D01*
X87828694Y-57661973D01*
X87827257Y-57671966D01*
X86868000Y-57671966D01*
X86868000Y-56006000D01*
X86888002Y-55937879D01*
X86941658Y-55891386D01*
X86994000Y-55880000D01*
X88659280Y-55880000D01*
X88727401Y-55900002D01*
G37*
%TD.AperFunction*%
%TD*%
M02*
