%TF.GenerationSoftware,KiCad,Pcbnew,(6.0.0)*%
%TF.CreationDate,2022-12-01T23:11:15+01:00*%
%TF.ProjectId,current_measurement,63757272-656e-4745-9f6d-656173757265,1.1*%
%TF.SameCoordinates,Original*%
%TF.FileFunction,Copper,L2,Bot*%
%TF.FilePolarity,Positive*%
%FSLAX46Y46*%
G04 Gerber Fmt 4.6, Leading zero omitted, Abs format (unit mm)*
G04 Created by KiCad (PCBNEW (6.0.0)) date 2022-12-01 23:11:15*
%MOMM*%
%LPD*%
G01*
G04 APERTURE LIST*
G04 Aperture macros list*
%AMRoundRect*
0 Rectangle with rounded corners*
0 $1 Rounding radius*
0 $2 $3 $4 $5 $6 $7 $8 $9 X,Y pos of 4 corners*
0 Add a 4 corners polygon primitive as box body*
4,1,4,$2,$3,$4,$5,$6,$7,$8,$9,$2,$3,0*
0 Add four circle primitives for the rounded corners*
1,1,$1+$1,$2,$3*
1,1,$1+$1,$4,$5*
1,1,$1+$1,$6,$7*
1,1,$1+$1,$8,$9*
0 Add four rect primitives between the rounded corners*
20,1,$1+$1,$2,$3,$4,$5,0*
20,1,$1+$1,$4,$5,$6,$7,0*
20,1,$1+$1,$6,$7,$8,$9,0*
20,1,$1+$1,$8,$9,$2,$3,0*%
G04 Aperture macros list end*
%TA.AperFunction,ComponentPad*%
%ADD10R,1.700000X1.700000*%
%TD*%
%TA.AperFunction,ComponentPad*%
%ADD11O,1.700000X1.700000*%
%TD*%
%TA.AperFunction,ComponentPad*%
%ADD12C,1.440000*%
%TD*%
%TA.AperFunction,SMDPad,CuDef*%
%ADD13RoundRect,0.150000X0.825000X0.150000X-0.825000X0.150000X-0.825000X-0.150000X0.825000X-0.150000X0*%
%TD*%
%TA.AperFunction,SMDPad,CuDef*%
%ADD14RoundRect,0.160000X0.160000X-0.197500X0.160000X0.197500X-0.160000X0.197500X-0.160000X-0.197500X0*%
%TD*%
%TA.AperFunction,SMDPad,CuDef*%
%ADD15RoundRect,0.150000X-0.150000X0.825000X-0.150000X-0.825000X0.150000X-0.825000X0.150000X0.825000X0*%
%TD*%
%TA.AperFunction,SMDPad,CuDef*%
%ADD16RoundRect,0.160000X-0.197500X-0.160000X0.197500X-0.160000X0.197500X0.160000X-0.197500X0.160000X0*%
%TD*%
%TA.AperFunction,SMDPad,CuDef*%
%ADD17RoundRect,0.250000X0.362500X1.425000X-0.362500X1.425000X-0.362500X-1.425000X0.362500X-1.425000X0*%
%TD*%
%TA.AperFunction,ViaPad*%
%ADD18C,0.800000*%
%TD*%
%TA.AperFunction,Conductor*%
%ADD19C,0.250000*%
%TD*%
G04 APERTURE END LIST*
D10*
%TO.P,J1,1,Pin_1*%
%TO.N,+5V*%
X91699000Y-57404000D03*
D11*
%TO.P,J1,2,Pin_2*%
%TO.N,GND*%
X89159000Y-57404000D03*
%TD*%
D10*
%TO.P,J3,1,Pin_1*%
%TO.N,GND*%
X111501000Y-72644000D03*
D11*
%TO.P,J3,2,Pin_2*%
%TO.N,Net-(J3-Pad2)*%
X114041000Y-72644000D03*
%TD*%
D12*
%TO.P,RV1,1,1*%
%TO.N,-10V*%
X113284000Y-59436000D03*
%TO.P,RV1,2,2*%
%TO.N,Net-(R3-Pad2)*%
X110744000Y-59436000D03*
%TO.P,RV1,3,3*%
%TO.N,+10V*%
X108204000Y-59436000D03*
%TD*%
D13*
%TO.P,U1,1,C1-*%
%TO.N,Net-(C1-Pad2)*%
X101535000Y-60071000D03*
%TO.P,U1,2,C2+*%
%TO.N,Net-(C2-Pad1)*%
X101535000Y-61341000D03*
%TO.P,U1,3,C2-*%
%TO.N,Net-(C2-Pad2)*%
X101535000Y-62611000D03*
%TO.P,U1,4,V-*%
%TO.N,-10V*%
X101535000Y-63881000D03*
%TO.P,U1,5,GND*%
%TO.N,GND*%
X96585000Y-63881000D03*
%TO.P,U1,6,VCC*%
%TO.N,+5V*%
X96585000Y-62611000D03*
%TO.P,U1,7,C1+*%
%TO.N,Net-(C1-Pad1)*%
X96585000Y-61341000D03*
%TO.P,U1,8,V+*%
%TO.N,+10V*%
X96585000Y-60071000D03*
%TD*%
D14*
%TO.P,R2,1*%
%TO.N,GND*%
X108712000Y-65113500D03*
%TO.P,R2,2*%
%TO.N,Net-(R2-Pad2)*%
X108712000Y-63918500D03*
%TD*%
D10*
%TO.P,J2,1,Pin_1*%
%TO.N,Net-(J2-Pad1)*%
X102872472Y-72851187D03*
D11*
%TO.P,J2,2,Pin_2*%
%TO.N,Net-(J2-Pad2)*%
X105412472Y-72851187D03*
%TD*%
D15*
%TO.P,U2,1,REF*%
%TO.N,Net-(R2-Pad2)*%
X111379000Y-64073000D03*
%TO.P,U2,2,-*%
%TO.N,Net-(R1-Pad2)*%
X112649000Y-64073000D03*
%TO.P,U2,3,+*%
%TO.N,Net-(J2-Pad2)*%
X113919000Y-64073000D03*
%TO.P,U2,4,V-*%
%TO.N,-10V*%
X115189000Y-64073000D03*
%TO.P,U2,5,SENSE*%
%TO.N,Net-(J3-Pad2)*%
X115189000Y-69023000D03*
%TO.P,U2,6*%
X113919000Y-69023000D03*
%TO.P,U2,7,V+*%
%TO.N,+10V*%
X112649000Y-69023000D03*
%TO.P,U2,8*%
%TO.N,unconnected-(U2-Pad8)*%
X111379000Y-69023000D03*
%TD*%
D16*
%TO.P,R1,1*%
%TO.N,Net-(J2-Pad1)*%
X106082500Y-66548000D03*
%TO.P,R1,2*%
%TO.N,Net-(R1-Pad2)*%
X107277500Y-66548000D03*
%TD*%
D17*
%TO.P,R4,1*%
%TO.N,Net-(J2-Pad2)*%
X107102500Y-69088000D03*
%TO.P,R4,2*%
%TO.N,Net-(J2-Pad1)*%
X101177500Y-69088000D03*
%TD*%
D14*
%TO.P,R3,1*%
%TO.N,Net-(R2-Pad2)*%
X109728000Y-64097500D03*
%TO.P,R3,2*%
%TO.N,Net-(R3-Pad2)*%
X109728000Y-62902500D03*
%TD*%
D18*
%TO.N,Net-(C1-Pad1)*%
X95250000Y-60960000D03*
%TO.N,Net-(C1-Pad2)*%
X99060000Y-59690000D03*
%TO.N,Net-(C2-Pad1)*%
X104140000Y-62230000D03*
%TO.N,Net-(C2-Pad2)*%
X100330000Y-62230000D03*
%TO.N,+5V*%
X93980000Y-62992000D03*
%TO.N,GND*%
X107188000Y-65532000D03*
X95250000Y-64770000D03*
%TO.N,+10V*%
X99060000Y-67310000D03*
%TO.N,-10V*%
X102870000Y-66040000D03*
%TD*%
D19*
%TO.N,Net-(C1-Pad1)*%
X96054000Y-60960000D02*
X96435000Y-61341000D01*
X95250000Y-60960000D02*
X96054000Y-60960000D01*
%TO.N,Net-(C1-Pad2)*%
X99441000Y-60071000D02*
X99060000Y-59690000D01*
X101685000Y-60071000D02*
X99441000Y-60071000D01*
%TO.N,Net-(C2-Pad1)*%
X101685000Y-61341000D02*
X101911072Y-61341000D01*
X102800072Y-62230000D02*
X104140000Y-62230000D01*
X101911072Y-61341000D02*
X102800072Y-62230000D01*
%TO.N,Net-(C2-Pad2)*%
X101304000Y-62230000D02*
X101685000Y-62611000D01*
X100330000Y-62230000D02*
X101304000Y-62230000D01*
%TO.N,+5V*%
X94361000Y-62611000D02*
X96435000Y-62611000D01*
X93980000Y-62992000D02*
X94361000Y-62611000D01*
%TO.N,GND*%
X96435000Y-63881000D02*
X96139000Y-63881000D01*
X108712000Y-65113500D02*
X107606500Y-65113500D01*
X96139000Y-63881000D02*
X95250000Y-64770000D01*
X107606500Y-65113500D02*
X107188000Y-65532000D01*
%TO.N,Net-(J2-Pad1)*%
X103542500Y-69088000D02*
X101177500Y-69088000D01*
X106082500Y-66548000D02*
X103542500Y-69088000D01*
X101092000Y-71120000D02*
X102641000Y-72669000D01*
X102641000Y-72669000D02*
X102890000Y-72669000D01*
X101177500Y-69088000D02*
X101177500Y-71034500D01*
X101177500Y-71034500D02*
X101092000Y-71120000D01*
%TO.N,Net-(J2-Pad2)*%
X107102500Y-70996500D02*
X105430000Y-72669000D01*
X113919000Y-64073000D02*
X113919000Y-64897000D01*
X113919000Y-64897000D02*
X111092520Y-67723480D01*
X111092520Y-67723480D02*
X108467020Y-67723480D01*
X108467020Y-67723480D02*
X107102500Y-69088000D01*
X107102500Y-69088000D02*
X107102500Y-70996500D01*
%TO.N,Net-(J3-Pad2)*%
X113919000Y-69023000D02*
X114041000Y-69145000D01*
X113919000Y-69023000D02*
X115189000Y-69023000D01*
X114041000Y-69145000D02*
X114041000Y-72644000D01*
%TO.N,Net-(R1-Pad2)*%
X110744000Y-66548000D02*
X112649000Y-64643000D01*
X112649000Y-64643000D02*
X112649000Y-64073000D01*
X107277500Y-66548000D02*
X110744000Y-66548000D01*
%TO.N,Net-(R2-Pad2)*%
X111354500Y-64097500D02*
X111379000Y-64073000D01*
X109549000Y-63918500D02*
X109728000Y-64097500D01*
X109728000Y-64097500D02*
X111354500Y-64097500D01*
X108712000Y-63918500D02*
X109549000Y-63918500D01*
%TO.N,+10V*%
X115824000Y-59944000D02*
X115824000Y-66040000D01*
X108204000Y-59436000D02*
X108204000Y-58420000D01*
X108204000Y-58420000D02*
X107696000Y-57912000D01*
X96901000Y-60071000D02*
X96435000Y-60071000D01*
X96585000Y-60071000D02*
X96961072Y-60071000D01*
X113792000Y-57912000D02*
X115824000Y-59944000D01*
X114808000Y-67056000D02*
X113284000Y-67056000D01*
X96961072Y-60071000D02*
X99060000Y-62169928D01*
X99060000Y-62169928D02*
X99060000Y-67310000D01*
X108204000Y-58417767D02*
X108709767Y-57912000D01*
X112649000Y-67691000D02*
X112649000Y-69023000D01*
X113284000Y-67056000D02*
X112649000Y-67691000D01*
X98594000Y-57912000D02*
X96435000Y-60071000D01*
X115824000Y-66040000D02*
X114808000Y-67056000D01*
X107696000Y-57912000D02*
X98594000Y-57912000D01*
X108204000Y-59436000D02*
X108204000Y-58417767D01*
X108709767Y-57912000D02*
X113792000Y-57912000D01*
%TO.N,-10V*%
X109248511Y-58899489D02*
X109248511Y-60423489D01*
X112239489Y-58391489D02*
X109756511Y-58391489D01*
X115189000Y-64073000D02*
X115189000Y-61341000D01*
X115189000Y-61341000D02*
X113284000Y-59436000D01*
X102870000Y-65066000D02*
X102870000Y-66040000D01*
X113284000Y-59436000D02*
X112239489Y-58391489D01*
X109756511Y-58391489D02*
X109248511Y-58899489D01*
X109248511Y-60423489D02*
X105791000Y-63881000D01*
X101685000Y-63881000D02*
X102870000Y-65066000D01*
X101685000Y-63881000D02*
X105791000Y-63881000D01*
%TO.N,Net-(R3-Pad2)*%
X109728000Y-60452000D02*
X109728000Y-62902500D01*
X110744000Y-59436000D02*
X109728000Y-60452000D01*
%TD*%
M02*
