M48
; DRILL file {KiCad (6.0.0)} date Thu Dec  1 22:20:29 2022
; FORMAT={-:-/ absolute / inch / decimal}
; #@! TF.CreationDate,2022-12-01T22:20:29+01:00
; #@! TF.GenerationSoftware,Kicad,Pcbnew,(6.0.0)
; #@! TF.FileFunction,Plated,1,2,PTH
FMAT,2
INCH
; #@! TA.AperFunction,Plated,PTH,ViaDrill
T1C0.0157
; #@! TA.AperFunction,Plated,PTH,ComponentDrill
T2C0.0315
; #@! TA.AperFunction,Plated,PTH,ComponentDrill
T3C0.0394
%
G90
G05
T1
X3.84Y-2.7
X4.08Y-2.62
X4.22Y-2.58
T2
X3.78Y-2.26
X3.78Y-2.56
X3.88Y-2.26
X3.88Y-2.56
X3.98Y-2.26
X3.98Y-2.56
X4.08Y-2.26
X4.08Y-2.56
X4.26Y-2.34
X4.36Y-2.34
X4.46Y-2.34
T3
X3.5102Y-2.26
X3.6102Y-2.26
X4.0501Y-2.8682
X4.1501Y-2.8682
X4.3898Y-2.86
X4.4898Y-2.86
T0
M30
